<svg xmlns="http://www.w3.org/2000/svg" xmlns:xlink="http://www.w3.org/1999/xlink" class="hidden" >
	<?php $CI = &get_instance(); if (isset($CI->IS_MOBILE) && $CI->IS_MOBILE): ?>
		<symbol id="particles_static" viewBox="0 0 437.9 459.58">
			<defs>
				<clipPath id="clip-path">
					<rect class="cls-1" width="437.9" height="459.58"/>
				</clipPath>
			</defs>
			<title>Particles</title>
			<g id="Layer_2" data-name="Layer 2">
				<g id="Layer_1-2" data-name="Layer 1">
					<g class="cls-2">
						<path class="cls-3" d="M48.19.24l-31,56L3.69,41.17,33.83.16h-.58L3.2,41a.24.24,0,0,0,0,.3l13.88,15.5a.22.22,0,0,0,.2.08.26.26,0,0,0,.18-.12L48.73.24Z"/>
						<path class="cls-3" d="M90.57.45,18,55.82,48.73.24h-.54L17.06,56.57a.23.23,0,0,0,.05.29.24.24,0,0,0,.3,0L91.34.46Z"/>
						<path class="cls-3" d="M437,229l-34-75.39,34.42-7.39v-.48l-34.8,7.47a.25.25,0,0,0-.17.33L437,230.08Z"/>
						<polygon class="cls-3" points="422.09 0.14 437.89 51.6 437.9 50.09 422.58 0.15 422.09 0.14"/>
						<path class="cls-3" d="M33.25.16,3.6,40.5,2.25,0H1.78L3.15,41.19a.25.25,0,0,0,.17.22.24.24,0,0,0,.26-.09L33.83.16Z"/>
						<path class="cls-3" d="M202.19,1,199,55.61l-26.74-44.1L180.48.91h-.6l-8.12,10.44a.23.23,0,0,0,0,.26L199,56.5a.22.22,0,0,0,.26.1.21.21,0,0,0,.17-.21L202.66,1Z"/>
						<path class="cls-3" d="M436.08,406.12l-15.34-9,15.4-1.81v-.47L420,396.74a.23.23,0,0,0-.2.19.26.26,0,0,0,.11.25l16.18,9.48Z"/>
						<polygon class="cls-3" points="422.09 0.14 437.89 51.6 437.9 50.09 422.58 0.15 422.09 0.14"/>
						<path class="cls-3" d="M419.54.13,406.66,54a.23.23,0,0,0,.17.28l31,7.85v-.49l-30.67-7.76L420,.13Z"/>
						<path class="cls-3" d="M312.11.58l16.26,29.33-5.72,21.4L303.6.54h-.51l19.38,51.61a.23.23,0,0,0,.24.15.22.22,0,0,0,.21-.17l5.93-22.19s0,0,0-.06a.27.27,0,0,0,0-.12L312.65.59Z"/>
						<path class="cls-3" d="M437.41,145.69,403,153.08l10.15-28.62,24.28,12.36v-.52l-24.31-12.38a.27.27,0,0,0-.2,0,.25.25,0,0,0-.13.14l-10.38,29.26a.26.26,0,0,0,0,.24.24.24,0,0,0,.23.07l34.7-7.45Z"/>
						<path class="cls-3" d="M437.46,136.29l-23.94-12.18,24.08-15.17v-.55l-24.68,15.54a.19.19,0,0,0-.11.21.23.23,0,0,0,.13.2l24.51,12.48Z"/>
						<path class="cls-3" d="M437.6,108.94v-.55l-24,15.11,24.19-51.66V70.72l-25,53.31a.23.23,0,0,0,.05.27.26.26,0,0,0,.29,0Z"/>
						<path class="cls-3" d="M413.25,124.23l24.54-52.39V70.72L413.2,123.24l-6.05-68.89,30.69,7.77v-.49l-30.9-7.81a.23.23,0,0,0-.21,0,.3.3,0,0,0-.08.2l6.16,70.09a.24.24,0,0,0,.19.21.23.23,0,0,0,.25-.13"/>
						<path class="cls-3" d="M436.14,394.84l-15.65,1.84,15.76-24.37v-.87l-16.44,25.41a.25.25,0,0,0,0,.25.26.26,0,0,0,.23.11l16.08-1.9Z"/>
						<path class="cls-3" d="M278,239.17a.2.2,0,0,1,0,.11.25.25,0,0,1-.16.12l-11.64,2.41a.28.28,0,0,1-.18,0,.23.23,0,0,1-.1-.17L259,182a.24.24,0,0,1,.19-.26.23.23,0,0,1,.27.16L278,239.09a.22.22,0,0,1,0,.08m-11.67,2.12,11.13-2.3L259.73,184.3Z"/>
						<path class="cls-3" d="M436,428.15l-33.6-3.08,17.73-27.78,16,9.37v-.54l-15.94-9.35a.24.24,0,0,0-.32.08l-18.05,28.3a.23.23,0,0,0,0,.23.23.23,0,0,0,.19.13l34,3.11Z"/>
						<path class="cls-3" d="M420.26,397a.28.28,0,0,1,0,.13l-18.05,28.3a.27.27,0,0,1-.2.11.23.23,0,0,1-.19-.1l-33.95-48.32a.23.23,0,0,1,0-.28.23.23,0,0,1,.27-.07l52,20a.29.29,0,0,1,.14.15s0,.05,0,.07M402,424.85l17.71-27.76-51-19.64Z"/>
						<path class="cls-3" d="M421.62,311.19h0L420.26,397a.24.24,0,0,1-.11.19.22.22,0,0,1-.21,0l-52-20a.26.26,0,0,1-.15-.16.23.23,0,0,1,0-.21L421.21,311a.23.23,0,0,1,.41.15m-1.83,85.44,1.36-84.77-52.74,65Z"/>
						<path class="cls-3" d="M436.25,372.31v-.87l-16,24.72,1.34-84.09L436.42,339v-1L421.6,311.07a.24.24,0,0,0-.27-.11.23.23,0,0,0-.17.22L419.79,397h0a.23.23,0,0,0,.43.13Z"/>
						<path class="cls-3" d="M436.43,338,422,311.85l14.49,8.9v-.55l-15-9.21a.21.21,0,0,0-.28,0,.23.23,0,0,0-.05.28L436.42,339Z"/>
						<path class="cls-3" d="M436.52,320.2l-14.86-9.12,15.17-51.95v-1.71l-15.68,53.7a.25.25,0,0,0,.11.27l15.24,9.36Z"/>
						<path class="cls-3" d="M299.28,82.81a.29.29,0,0,1,0,.09l-39.81,99.17a.24.24,0,0,1-.4.06l-41.38-50.21a.19.19,0,0,1,0-.19.25.25,0,0,1,.11-.16l81.19-49a.26.26,0,0,1,.28,0,.25.25,0,0,1,.08.18m-40.12,98.71,39.41-98.15L218.2,131.83Z"/>
						<path class="cls-3" d="M299.28,82.81a.23.23,0,0,1-.11.2L218,132a.22.22,0,0,1-.19,0,.24.24,0,0,1-.15-.13L199.24,90.73a.22.22,0,0,1,0-.22.27.27,0,0,1,.18-.11L299,82.58a.23.23,0,0,1,.24.16.17.17,0,0,1,0,.07M218,131.44l80.12-48.32L199.8,90.84Z"/>
						<path class="cls-3" d="M299.28,82.81v0a.24.24,0,0,1-.22.21l-99.59,7.83a.28.28,0,0,1-.18-.06.23.23,0,0,1-.07-.17l-.3-34.26a.44.44,0,0,1,.1-.19.23.23,0,0,1,.2,0L299.1,82.58a.23.23,0,0,1,.18.23m-99.6,7.57,98-7.7-98.25-26Z"/>
						<path class="cls-3" d="M303.09.54,322.43,52,299.21,82.2,290.56.47h-.47l8.72,82.36A.25.25,0,0,0,299,83a.25.25,0,0,0,.25-.09l23.65-30.74a.24.24,0,0,0,.05-.14.19.19,0,0,0,0-.08L303.6.54Z"/>
						<path class="cls-3" d="M199.69,90.64a.23.23,0,0,1-.15.21.23.23,0,0,1-.26,0L166.66,56.68a.21.21,0,0,1,0-.25.23.23,0,0,1,.22-.14l32.33-.15a.25.25,0,0,1,.24.24l.29,34.25ZM167.37,56.75,199.21,90l-.28-33.43Z"/>
						<path class="cls-3" d="M139.55.7l26.9,55.59L18,56.45,91.34.46h-.77L17.12,56.5a.23.23,0,0,0-.08.26.24.24,0,0,0,.22.16l149.57-.16a.27.27,0,0,0,.2-.11.31.31,0,0,0,0-.13.36.36,0,0,0,0-.1L140.07.71Z"/>
						<path class="cls-3" d="M199.39,56.38a.2.2,0,0,1,0,.11.22.22,0,0,1-.2.12l-32.33.14a.21.21,0,0,1-.18-.07.31.31,0,0,1-.06-.19l5.12-45a.22.22,0,0,1,.18-.2.23.23,0,0,1,.25.11l27.22,44.89a.24.24,0,0,1,0,.12m-32.3-.1,31.65-.14L172.1,12.2Z"/>
						<path class="cls-3" d="M158.87.8l12.82,10.79-5,44.1L140.07.71h-.52l27.07,55.92a.22.22,0,0,0,.25.13.22.22,0,0,0,.19-.2l5.12-45v0a.23.23,0,0,0-.09-.18L159.61.81Z"/>
						<path class="cls-3" d="M177,.89l-5.09,10.23L159.61.81h-.74l12.92,10.87a.24.24,0,0,0,.2.05.22.22,0,0,0,.16-.12L177.47.9Z"/>
						<path class="cls-3" d="M179.88.91,173.19,9.5,177.47.9H177l-5.22,10.5a.23.23,0,0,0,.09.3.24.24,0,0,0,.31-.06L180.48.91Z"/>
						<path class="cls-3" d="M421.62,311.25l15.21-52.12v-1.71l-15.51,53.14-48.52-94.25,64.12,22.76v-.49l-64.52-22.92a.23.23,0,0,0-.25.07.23.23,0,0,0,0,.26l49.06,95.3a.24.24,0,0,0,.23.13.23.23,0,0,0,.21-.17"/>
						<path class="cls-3" d="M436.93,238.58l-64.27-22.83,30-61.8L437,230.08V229L402.87,153.3a.23.23,0,0,0-.21-.14.23.23,0,0,0-.21.13l-30.33,62.49a.21.21,0,0,0,0,.19.23.23,0,0,0,.13.14l64.68,23Z"/>
						<path class="cls-3" d="M298.62,211.81a.27.27,0,0,1-.05.14L278,239.31a.23.23,0,0,1-.3.06.23.23,0,0,1-.11-.29l15.8-43.43a.24.24,0,0,1,.23-.15.23.23,0,0,1,.22.17l4.8,16.07a.15.15,0,0,1,0,.07m-20.09,26,19.6-26-4.57-15.28Z"/>
						<path class="cls-3" d="M293.82,195.73a.19.19,0,0,1,0,.08L278,239.25a.25.25,0,0,1-.23.15.24.24,0,0,1-.22-.16L259,182.05a.22.22,0,0,1,.06-.24.23.23,0,0,1,.25-.05l34.35,13.75a.25.25,0,0,1,.15.22m-16,42.71,15.49-42.57-33.67-13.49Z"/>
						<path class="cls-3" d="M372.57,215.89a0,0,0,0,1,0,0,.22.22,0,0,1-.24.2L298.37,212a.23.23,0,0,1-.21-.17l-4.8-16.07a.22.22,0,0,1,.05-.23.25.25,0,0,1,.23-.07l78.75,20.16a.23.23,0,0,1,.18.23m-74-4.31,71.4,3.94-76-19.46Z"/>
						<path class="cls-3" d="M299.28,82.81h0l-5.46,112.92a.27.27,0,0,1-.11.19.22.22,0,0,1-.21,0L259.14,182.2a.27.27,0,0,1-.13-.13.28.28,0,0,1,0-.18l39.82-99.17a.23.23,0,0,1,.45.09m-5.92,112.58,5.38-111.2-39.21,97.66Z"/>
						<path class="cls-3" d="M259.46,182a.19.19,0,0,1,0,.08.24.24,0,0,1-.19.15l-89.61,11.58a.24.24,0,0,1-.24-.12.25.25,0,0,1,0-.26l48.23-61.78a.23.23,0,0,1,.18-.09.26.26,0,0,1,.19.08l41.38,50.21a.27.27,0,0,1,0,.15m-89.31,11.27,88.63-11.45-40.93-49.65Z"/>
						<path class="cls-3" d="M218.08,131.77a.21.21,0,0,1-.05.15L169.8,193.7a.22.22,0,0,1-.21.09.25.25,0,0,1-.19-.14l-24.15-53.82a.26.26,0,0,1,0-.21.25.25,0,0,1,.18-.12l72.38-8a.23.23,0,0,1,.23.12.2.2,0,0,1,0,.11m-48.41,61.34,47.65-61-71.51,7.86Z"/>
						<path class="cls-3" d="M145.7,139.74v0a.24.24,0,0,1-.18.19L38.86,165.65a.19.19,0,0,1-.18,0,.24.24,0,0,1-.11-.15L17,56.73a.23.23,0,0,1,.1-.24.23.23,0,0,1,.26,0l128.21,83a.25.25,0,0,1,.1.2M39,165.14l105.89-25.5L17.6,57.18Z"/>
						<path class="cls-3" d="M218.08,131.77a.27.27,0,0,1,0,.12.26.26,0,0,1-.18.12l-72.38,8a.24.24,0,0,1-.18-.41l54-49.1a.27.27,0,0,1,.21-.06.25.25,0,0,1,.16.14l18.4,41.14a.15.15,0,0,1,0,.09m-71.92,7.65,71.34-7.85L199.37,91Z"/>
						<path class="cls-3" d="M199.68,90.64h0a.21.21,0,0,1-.07.17l-54,49.1a.24.24,0,0,1-.28,0,.23.23,0,0,1-.11-.26L166.6,56.46a.26.26,0,0,1,.17-.17.25.25,0,0,1,.23.07l32.62,34.11a.21.21,0,0,1,.06.17M145.89,139l53.22-48.41L167,57Z"/>
						<path class="cls-3" d="M167.06,56.52a.13.13,0,0,1,0,.06L145.7,139.79a.24.24,0,0,1-.36.14L17.14,56.88a.23.23,0,0,1-.1-.26.23.23,0,0,1,.22-.17l149.57-.16a.21.21,0,0,1,.18.09.19.19,0,0,1,.05.14m-21.74,82.84,21.2-82.6-148.46.16Z"/>
						<path class="cls-3" d="M372.57,215.89a.24.24,0,0,1-.3.22L293.52,196a.24.24,0,0,1-.16-.15.26.26,0,0,1,0-.21l59.05-85.49a.24.24,0,0,1,.43.09l19.69,105.64a.09.09,0,0,1,0,0M294,195.59l78.06,20L352.51,110.84Z"/>
						<path class="cls-3" d="M402.89,153.39a.43.43,0,0,1,0,.11L372.54,216a.23.23,0,0,1-.24.13.25.25,0,0,1-.2-.19L352.4,110.28a.24.24,0,0,1,.39-.22l50,43.16a.23.23,0,0,1,.08.17m-30.46,61.75,29.94-61.69L353,110.86Z"/>
						<path class="cls-3" d="M352.87,110.24a.18.18,0,0,1,0,.13l-59.05,85.5a.23.23,0,0,1-.27.08.24.24,0,0,1-.16-.23L298.81,82.8a.22.22,0,0,1,.12-.19.24.24,0,0,1,.22,0L352.74,110a.22.22,0,0,1,.12.15.13.13,0,0,1,0,.06m-59,84.68,58.43-84.59-53-27.15Z"/>
						<path class="cls-3" d="M413.28,124.13a.24.24,0,0,1,0,.08l-10.38,29.26a.26.26,0,0,1-.16.15.25.25,0,0,1-.22-.05l-50-43.15a.24.24,0,0,1,.21-.41l60.4,13.89a.24.24,0,0,1,.16.12.2.2,0,0,1,0,.11M402.55,153l10.18-28.69-59.22-13.62Z"/>
						<path class="cls-3" d="M413.28,124.13a.26.26,0,0,1-.09.17.24.24,0,0,1-.2.06l-60.41-13.89a.23.23,0,0,1-.17-.16.24.24,0,0,1,.06-.23l54.25-56.2a.22.22,0,0,1,.24-.06.24.24,0,0,1,.16.2l6.15,70.09v0m-60.19-14,59.69,13.72L406.7,54.58Z"/>
						<path class="cls-3" d="M352.87,110.24a.23.23,0,0,1-.07.17.23.23,0,0,1-.27,0L298.94,83a.26.26,0,0,1-.13-.16.25.25,0,0,1,.05-.19l23.65-30.74a.2.2,0,0,1,.2-.09.21.21,0,0,1,.19.12l29.94,58.17a.23.23,0,0,1,0,.11M299.4,82.73l52.69,27L322.65,52.51Z"/>
						<path class="cls-3" d="M407.12,54a.27.27,0,0,1-.06.17L352.8,110.4a.22.22,0,0,1-.22.07.23.23,0,0,1-.17-.16L328.4,30a.22.22,0,0,1,.06-.24.22.22,0,0,1,.23-.05L407,53.82a.24.24,0,0,1,.15.16.13.13,0,0,1,0,.06m-54.37,55.75,53.7-55.64L329,30.23Z"/>
						<path class="cls-3" d="M352.87,110.24a.24.24,0,0,1-.15.22.23.23,0,0,1-.29-.11L322.48,52.18a.25.25,0,0,1,0-.17l5.93-22.19a.22.22,0,0,1,.22-.17.24.24,0,0,1,.23.16l24,80.36a.2.2,0,0,1,0,.07M322.94,52l28.75,55.84L328.63,30.74Z"/>
						<path class="cls-3" d="M382.73,457.27a.24.24,0,0,1-.15.22.22.22,0,0,1-.28-.1l-39-66.55a.23.23,0,0,1,0-.18.28.28,0,0,1,.11-.15l24.5-13.76a.22.22,0,0,1,.21,0,.24.24,0,0,1,.13.17l14.48,80.32v0m-38.88-66.46L382,456l-14.18-78.69Z"/>
						<path class="cls-3" d="M368.26,377v0a.28.28,0,0,1-.12.18l-24.5,13.76a.22.22,0,0,1-.21,0,.21.21,0,0,1-.13-.17l-8.17-41.08a.24.24,0,0,1,.11-.25.24.24,0,0,1,.27,0l32.66,27.33a.21.21,0,0,1,.09.18m-24.56,13.4,23.91-13.44-31.89-26.68Z"/>
						<path class="cls-3" d="M203.24,260.7s0,0,0,.05a.23.23,0,0,1-.29.17L153.23,248a.25.25,0,0,1-.17-.29.24.24,0,0,1,.29-.17l49.71,12.91a.23.23,0,0,1,.18.23"/>
						<path class="cls-3" d="M203.24,260.7a.2.2,0,0,1-.06.14.22.22,0,0,1-.24.08L153.23,248a.24.24,0,0,1-.14-.12.22.22,0,0,1,0-.18l16.32-54.23a.25.25,0,0,1,.21-.17.26.26,0,0,1,.23.13l33.38,67.14a.2.2,0,0,1,0,.11m-49.65-13.08,49,12.72-32.89-66.15Z"/>
						<path class="cls-3" d="M266.37,241.58a.23.23,0,0,1-.17.22l-63.13,19.12a.24.24,0,0,1-.26-.09.22.22,0,0,1,0-.27L259,181.84a.23.23,0,0,1,.25-.09.22.22,0,0,1,.17.2l6.91,59.6v0m-62.78,18.69,62.29-18.86-6.82-58.8Z"/>
						<path class="cls-3" d="M259.46,182a.25.25,0,0,1,0,.14l-56.23,78.71a.23.23,0,0,1-.21.1.26.26,0,0,1-.19-.13l-33.38-67.14a.2.2,0,0,1,0-.21.24.24,0,0,1,.18-.13l89.61-11.57a.22.22,0,0,1,.23.11.27.27,0,0,1,0,.12M203,260.24l55.68-78L170,193.75Z"/>
						<path class="cls-3" d="M310.59,282.54a.23.23,0,0,1-.08.17.24.24,0,0,1-.32,0l-44.21-41a.22.22,0,0,1-.07-.24.21.21,0,0,1,.18-.16l11.64-2.41a.24.24,0,0,1,.24.08l32.57,43.38a.24.24,0,0,1,0,.14m-44-40.83,42,38.88-30.92-41.16Z"/>
						<path class="cls-3" d="M310.59,282.54a.24.24,0,0,1-.42.14l-32.58-43.37a.26.26,0,0,1,0-.29l20.61-27.36a.22.22,0,0,1,.24-.08.24.24,0,0,1,.18.19l12,70.73s0,0,0,0m-32.52-43.37L310,281.62l-11.71-69.24Z"/>
						<path class="cls-3" d="M372.57,215.89a.28.28,0,0,1-.07.16l-62,66.65a.23.23,0,0,1-.24.06.24.24,0,0,1-.16-.18l-12-70.74a.23.23,0,0,1,.06-.19.24.24,0,0,1,.19-.08l74,4.08a.23.23,0,0,1,.2.15.29.29,0,0,1,0,.09M310.5,282l61.32-65.94-73.15-4Z"/>
						<path class="cls-3" d="M247.43.25l51.1,82.18-99-26.21L222.75,1.13h-.5L198.94,56.29a.25.25,0,0,0,0,.19.2.2,0,0,0,.15.12L299,83a.23.23,0,0,0,.25-.09.24.24,0,0,0,0-.14.22.22,0,0,0,0-.13L248,.26Z"/>
						<path class="cls-3" d="M290.09.47l8.61,81.36L248,.26h-.56l51.41,82.68a.23.23,0,0,0,.28.1.22.22,0,0,0,.16-.22v0L290.56.47Z"/>
						<path class="cls-3" d="M222.25.3,199.47,55,202.66.2h-.47l-3.26,56.17a.22.22,0,0,0,.18.25.25.25,0,0,0,.27-.14L222.76.3Z"/>
						<path class="cls-3" d="M368.26,377a.3.3,0,0,1-.1.19.24.24,0,0,1-.29,0l-32.66-27.33a.23.23,0,0,1-.08-.18l-.19-54h0a.24.24,0,0,1,.19-.23.23.23,0,0,1,.26.15l32.85,81.33a.29.29,0,0,1,0,.09M335.6,349.52l31.85,26.65-32-79.33Z"/>
						<path class="cls-3" d="M421.62,311.19a.23.23,0,0,1-.05.15L368.2,377.1a.22.22,0,0,1-.21.09.23.23,0,0,1-.19-.15L335,295.71a.24.24,0,0,1,0-.23.25.25,0,0,1,.22-.09L421.43,311a.24.24,0,0,1,.18.14.28.28,0,0,1,0,.09M368.09,376.5,421,311.35l-85.41-15.42Z"/>
						<path class="cls-3" d="M335.6,349.63a.23.23,0,0,1-.19.23.24.24,0,0,1-.27-.15l-25-67.09a.23.23,0,0,1,.07-.26.23.23,0,0,1,.26,0l24.82,13.09a.23.23,0,0,1,.13.2l.19,54ZM310.79,283l24.33,65.29-.18-52.55Z"/>
						<path class="cls-3" d="M421.62,311.19a.23.23,0,0,1,0,.14.24.24,0,0,1-.23.09l-86.22-15.56a.23.23,0,0,1-.16-.13.2.2,0,0,1,0-.2l37.16-79.74a.24.24,0,0,1,.21-.14.23.23,0,0,1,.21.13l49.06,95.3a.2.2,0,0,1,0,.11m-86.1-15.74L421,310.87l-48.62-94.45Z"/>
						<path class="cls-3" d="M372.57,215.89a.22.22,0,0,1,0,.1l-37.15,79.73a.23.23,0,0,1-.33.11l-24.82-13.09a.22.22,0,0,1-.12-.16.24.24,0,0,1,.06-.2l62-66.65a.23.23,0,0,1,.3,0,.24.24,0,0,1,.11.2m-37.5,79.41,36.42-78.17-60.76,65.34Z"/>
						<path class="cls-3" d="M338.86.72,328.58,29.33,312.65.59h-.54L328.42,30a.22.22,0,0,0,.22.11.21.21,0,0,0,.2-.15L339.36.72Z"/>
						<path class="cls-3" d="M153.53,247.79a.25.25,0,0,1-.11.19.22.22,0,0,1-.32-.06l-36.25-54.19a.24.24,0,0,1,.07-.33.23.23,0,0,1,.32.07l36.25,54.19a.28.28,0,0,1,0,.13"/>
						<path class="cls-3" d="M169.85,193.56a.13.13,0,0,1,0,.06l-16.32,54.24a.24.24,0,0,1-.19.16.25.25,0,0,1-.23-.1l-36.25-54.19a.26.26,0,0,1,0-.24.23.23,0,0,1,.21-.13l52.57,0a.26.26,0,0,1,.19.1.23.23,0,0,1,0,.14m-16.64,53.68,16.09-53.45-51.81,0Z"/>
						<path class="cls-3" d="M169.85,193.56a.17.17,0,0,1,0,.12.21.21,0,0,1-.19.11l-52.57,0a.23.23,0,0,1-.2-.11.24.24,0,0,1,0-.23l28.42-53.86a.25.25,0,0,1,.22-.13.22.22,0,0,1,.2.14l24.15,53.82a.18.18,0,0,1,0,.1m-52.41-.2,51.82,0-23.81-53Z"/>
						<path class="cls-3" d="M145.7,139.74a.52.52,0,0,1,0,.11l-28.42,53.86a.24.24,0,0,1-.29.11L38.73,165.64a.23.23,0,0,1-.16-.23.23.23,0,0,1,.18-.21l106.66-25.69a.24.24,0,0,1,.24.08.21.21,0,0,1,0,.15m-28.76,53.57L145,140.09,39.62,165.47Z"/>
						<path class="cls-3" d="M371.39.89l34.93,52.73-77.2-23.83L365.07.85h-.76L328.48,29.7a.21.21,0,0,0-.09.22.23.23,0,0,0,.16.18l78.27,24.17a.23.23,0,0,0,.25-.09.24.24,0,0,0,.05-.14.22.22,0,0,0,0-.13L372,.89Z"/>
						<path class="cls-3" d="M419.54.13,406.79,53.47,372,.89h-.57l35.3,53.28a.23.23,0,0,0,.24.1.21.21,0,0,0,.18-.17L420,.13Z"/>
						<path class="cls-3" d="M364.31.85,329.13,29.19,339.36.72h-.5L328.4,29.8a.25.25,0,0,0,.08.27.26.26,0,0,0,.29,0L365.07.85Z"/>
						<path class="cls-3" d="M.94,41.17A2.45,2.45,0,1,0,3.4,38.73,2.45,2.45,0,0,0,.94,41.17"/>
						<path class="cls-4" d="M.94,41.17a2.45,2.45,0,1,1,4.89,0,2.45,2.45,0,1,1-4.89,0m-.94,0A3.39,3.39,0,1,0,3.4,37.8,3.39,3.39,0,0,0,0,41.16"/>
						<path class="cls-3" d="M400.46,425.26a1.51,1.51,0,1,0,3,0,1.51,1.51,0,0,0-3,0"/>
						<path class="cls-4" d="M400.46,425.27a1.51,1.51,0,1,1,1.5,1.51,1.51,1.51,0,0,1-1.5-1.51m-.94,0a2.45,2.45,0,1,0,2.46-2.44,2.45,2.45,0,0,0-2.46,2.44"/>
						<path class="cls-3" d="M417.93,397a2.09,2.09,0,1,0,2.1-2.08,2.09,2.09,0,0,0-2.1,2.08"/>
						<path class="cls-4" d="M417.93,397a2.09,2.09,0,1,1,4.18,0,2.09,2.09,0,0,1-4.18,0m-.94,0a3,3,0,1,0,3.05-3,3,3,0,0,0-3.05,3"/>
						<path class="cls-3" d="M170.13,11.48A1.82,1.82,0,1,0,172,9.68a1.8,1.8,0,0,0-1.82,1.8"/>
						<path class="cls-4" d="M170.13,11.48a1.81,1.81,0,1,1,1.8,1.82,1.8,1.8,0,0,1-1.8-1.82m-.94,0A2.75,2.75,0,1,0,172,8.74a2.75,2.75,0,0,0-2.77,2.74"/>
						<path class="cls-3" d="M214.74,131.76a3.11,3.11,0,1,0,3.12-3.1,3.11,3.11,0,0,0-3.12,3.1"/>
						<path class="cls-4" d="M214.74,131.76a3.11,3.11,0,1,1,3.09,3.12,3.12,3.12,0,0,1-3.09-3.12m-.94,0a4.05,4.05,0,1,0,4.07-4,4.06,4.06,0,0,0-4.07,4"/>
						<path class="cls-3" d="M199.46,89.3a1.34,1.34,0,1,0,1.32,1.34,1.33,1.33,0,0,0-1.32-1.34"/>
						<path class="cls-4" d="M198.12,90.63A1.33,1.33,0,1,1,199.44,92a1.33,1.33,0,0,1-1.32-1.34m-.94,0a2.27,2.27,0,1,0,2.28-2.26,2.27,2.27,0,0,0-2.28,2.26"/>
						<path class="cls-3" d="M169.89,56.54a3.07,3.07,0,1,0-3.08,3,3.07,3.07,0,0,0,3.08-3"/>
						<path class="cls-4" d="M163.76,56.51a3.07,3.07,0,1,1,3.05,3.07,3.06,3.06,0,0,1-3.05-3.07m-.93,0a4,4,0,1,0,4-4,4,4,0,0,0-4,4"/>
						<path class="cls-3" d="M17.27,54.77a1.92,1.92,0,1,0,1.91,1.92,1.92,1.92,0,0,0-1.91-1.92"/>
						<path class="cls-4" d="M15.35,56.67a1.92,1.92,0,1,1,1.9,1.93,1.92,1.92,0,0,1-1.9-1.93m-.94,0a2.86,2.86,0,1,0,2.87-2.84,2.86,2.86,0,0,0-2.87,2.84"/>
						<path class="cls-3" d="M290.82,195.72A2.77,2.77,0,1,0,293.6,193a2.76,2.76,0,0,0-2.78,2.75"/>
						<path class="cls-4" d="M290.82,195.72a2.77,2.77,0,1,1,2.75,2.78,2.77,2.77,0,0,1-2.75-2.78m-.94,0A3.71,3.71,0,1,0,293.6,192a3.71,3.71,0,0,0-3.72,3.68"/>
						<path class="cls-3" d="M400.28,153.38a2.38,2.38,0,1,0,2.39-2.36,2.38,2.38,0,0,0-2.39,2.36"/>
						<path class="cls-4" d="M400.28,153.38a2.38,2.38,0,1,1,2.36,2.39,2.38,2.38,0,0,1-2.36-2.39m-.94,0a3.32,3.32,0,1,0,3.33-3.3,3.32,3.32,0,0,0-3.33,3.3"/>
						<path class="cls-3" d="M410,124.11a3.08,3.08,0,1,0,3.1-3.06,3.08,3.08,0,0,0-3.1,3.06"/>
						<path class="cls-4" d="M410,124.11a3.08,3.08,0,1,1,3.06,3.1,3.09,3.09,0,0,1-3.06-3.1m-.94,0a4,4,0,1,0,4-4,4,4,0,0,0-4,4"/>
						<path class="cls-3" d="M350.91,110.23a1.73,1.73,0,1,0,1.73-1.71,1.72,1.72,0,0,0-1.73,1.71"/>
						<path class="cls-4" d="M350.91,110.23a1.73,1.73,0,1,1,1.72,1.74,1.71,1.71,0,0,1-1.72-1.74m-.94,0a2.67,2.67,0,1,0,2.68-2.65,2.67,2.67,0,0,0-2.68,2.65"/>
						<path class="cls-3" d="M319.35,52.05a3.34,3.34,0,1,0,3.36-3.32,3.34,3.34,0,0,0-3.36,3.32"/>
						<path class="cls-4" d="M319.35,52.05a3.34,3.34,0,1,1,3.33,3.36,3.35,3.35,0,0,1-3.33-3.36m-.93,0a4.28,4.28,0,1,0,4.3-4.26,4.27,4.27,0,0,0-4.3,4.26"/>
						<path class="cls-3" d="M381.12,457.26a1.38,1.38,0,1,0,1.39-1.37,1.39,1.39,0,0,0-1.39,1.37"/>
						<path class="cls-4" d="M381.12,457.26a1.38,1.38,0,1,1,1.37,1.38,1.37,1.37,0,0,1-1.37-1.38m-.93,0a2.31,2.31,0,1,0,2.32-2.3,2.31,2.31,0,0,0-2.32,2.3"/>
						<path class="cls-3" d="M341.31,390.71a2.22,2.22,0,1,0,2.23-2.21,2.21,2.21,0,0,0-2.23,2.21"/>
						<path class="cls-4" d="M341.31,390.71a2.22,2.22,0,1,1,2.21,2.23,2.21,2.21,0,0,1-2.21-2.23m-.94,0a3.16,3.16,0,1,0,3.17-3.14,3.16,3.16,0,0,0-3.17,3.14"/>
						<path class="cls-3" d="M201.66,260.69a1.34,1.34,0,1,0,1.35-1.34,1.35,1.35,0,0,0-1.35,1.34"/>
						<path class="cls-4" d="M201.66,260.69A1.34,1.34,0,1,1,203,262a1.35,1.35,0,0,1-1.33-1.35m-.94,0a2.28,2.28,0,1,0,2.29-2.27,2.3,2.3,0,0,0-2.29,2.27"/>
						<path class="cls-3" d="M256.17,182a3.06,3.06,0,1,0,3.07-3,3.06,3.06,0,0,0-3.07,3"/>
						<path class="cls-4" d="M256.17,182a3.06,3.06,0,1,1,3,3.08,3.05,3.05,0,0,1-3-3.08m-.94,0a4,4,0,1,0,4-4,4,4,0,0,0-4,4"/>
						<path class="cls-3" d="M267.66,241.58a1.53,1.53,0,1,0-1.53,1.52,1.53,1.53,0,0,0,1.53-1.52"/>
						<path class="cls-4" d="M264.61,241.57a1.53,1.53,0,1,1,1.52,1.53,1.52,1.52,0,0,1-1.52-1.53m-.94,0a2.47,2.47,0,1,0,2.48-2.45,2.47,2.47,0,0,0-2.48,2.45"/>
						<path class="cls-3" d="M276.05,239.16a1.73,1.73,0,1,0,1.73-1.72,1.73,1.73,0,0,0-1.73,1.72"/>
						<path class="cls-4" d="M276.05,239.16a1.73,1.73,0,1,1,1.72,1.73,1.73,1.73,0,0,1-1.72-1.73m-.94,0a2.67,2.67,0,1,0,2.68-2.65,2.68,2.68,0,0,0-2.68,2.65"/>
						<path class="cls-3" d="M297,211.8a1.34,1.34,0,0,0,1.34,1.35,1.35,1.35,0,1,0,0-2.69A1.34,1.34,0,0,0,297,211.8"/>
						<path class="cls-4" d="M297,211.8a1.34,1.34,0,0,1,1.35-1.34,1.35,1.35,0,1,1,0,2.69A1.34,1.34,0,0,1,297,211.8m-.94,0a2.29,2.29,0,1,0,2.3-2.27,2.27,2.27,0,0,0-2.3,2.27"/>
						<path class="cls-3" d="M296.7,82.8a2.35,2.35,0,1,0,2.36-2.34,2.35,2.35,0,0,0-2.36,2.34"/>
						<path class="cls-4" d="M296.7,82.8A2.35,2.35,0,1,1,299,85.16a2.35,2.35,0,0,1-2.33-2.36m-.94,0a3.29,3.29,0,1,0,3.3-3.27,3.29,3.29,0,0,0-3.3,3.27"/>
						<path class="cls-3" d="M196.46,56.36a2.7,2.7,0,1,0,2.71-2.68,2.7,2.7,0,0,0-2.71,2.68"/>
						<path class="cls-4" d="M196.46,56.36a2.7,2.7,0,1,1,2.69,2.71,2.69,2.69,0,0,1-2.69-2.71m-.94,0a3.64,3.64,0,1,0,3.66-3.62,3.64,3.64,0,0,0-3.66,3.62"/>
						<path class="cls-3" d="M365.1,376.94A2.93,2.93,0,1,0,368,374a2.92,2.92,0,0,0-2.94,2.91"/>
						<path class="cls-4" d="M365.1,376.94a2.93,2.93,0,1,1,2.91,2.94,2.92,2.92,0,0,1-2.91-2.94m-.94,0a3.87,3.87,0,1,0,3.88-3.85,3.86,3.86,0,0,0-3.88,3.85"/>
						<path class="cls-3" d="M335.37,348a1.67,1.67,0,0,0-1.69,1.67,1.69,1.69,0,1,0,1.69-1.67"/>
						<path class="cls-4" d="M333.68,349.62a1.69,1.69,0,0,1,3.37,0,1.69,1.69,0,1,1-3.37,0m-.94,0a2.63,2.63,0,1,0,2.64-2.61,2.62,2.62,0,0,0-2.64,2.61"/>
						<path class="cls-3" d="M418.74,311.17a2.65,2.65,0,1,0,2.66-2.63,2.65,2.65,0,0,0-2.66,2.63"/>
						<path class="cls-4" d="M418.74,311.17a2.65,2.65,0,1,1,2.64,2.66,2.65,2.65,0,0,1-2.64-2.66m-.94,0a3.59,3.59,0,1,0,3.61-3.57,3.58,3.58,0,0,0-3.61,3.57"/>
						<path class="cls-3" d="M332.41,295.61a2.77,2.77,0,1,0,2.78-2.75,2.76,2.76,0,0,0-2.78,2.75"/>
						<path class="cls-4" d="M332.41,295.61a2.77,2.77,0,1,1,2.75,2.78,2.75,2.75,0,0,1-2.75-2.78m-.94,0a3.71,3.71,0,1,0,3.72-3.69,3.71,3.71,0,0,0-3.72,3.69"/>
						<path class="cls-3" d="M369.92,215.87a2.42,2.42,0,1,0,2.42-2.4,2.41,2.41,0,0,0-2.42,2.4"/>
						<path class="cls-4" d="M369.92,215.87a2.42,2.42,0,1,1,2.4,2.43,2.4,2.4,0,0,1-2.4-2.43m-.94,0a3.35,3.35,0,1,0,3.37-3.34,3.36,3.36,0,0,0-3.37,3.34"/>
						<path class="cls-3" d="M308.58,282.53a1.77,1.77,0,1,0,1.78-1.77,1.77,1.77,0,0,0-1.78,1.77"/>
						<path class="cls-4" d="M308.58,282.53a1.77,1.77,0,1,1,1.76,1.78,1.78,1.78,0,0,1-1.76-1.78m-.94,0a2.71,2.71,0,1,0,2.73-2.69,2.71,2.71,0,0,0-2.73,2.69"/>
						<path class="cls-3" d="M151.17,247.78a2.12,2.12,0,1,0,2.13-2.11,2.12,2.12,0,0,0-2.13,2.11"/>
						<path class="cls-4" d="M151.17,247.78a2.12,2.12,0,1,1,2.11,2.13,2.12,2.12,0,0,1-2.11-2.13m-.94,0a3.06,3.06,0,1,0,3.08-3,3.07,3.07,0,0,0-3.08,3"/>
						<path class="cls-3" d="M168,193.55a1.58,1.58,0,1,0,1.59-1.57,1.57,1.57,0,0,0-1.59,1.57"/>
						<path class="cls-4" d="M168,193.55a1.58,1.58,0,1,1,3.15,0,1.58,1.58,0,0,1-3.15,0m-.94,0a2.52,2.52,0,1,0,2.53-2.5,2.53,2.53,0,0,0-2.53,2.5"/>
						<path class="cls-3" d="M120.44,193.61A3.39,3.39,0,1,0,117,197a3.38,3.38,0,0,0,3.41-3.38"/>
						<path class="cls-4" d="M113.66,193.58A3.39,3.39,0,1,1,117,197a3.39,3.39,0,0,1-3.37-3.41m-.94,0a4.33,4.33,0,1,0,4.35-4.3,4.33,4.33,0,0,0-4.35,4.3"/>
						<path class="cls-3" d="M143.74,139.73a1.73,1.73,0,1,0,1.74-1.72,1.73,1.73,0,0,0-1.74,1.72"/>
						<path class="cls-4" d="M143.74,139.73a1.73,1.73,0,0,1,3.46,0,1.73,1.73,0,1,1-3.46,0m-.94,0a2.67,2.67,0,1,0,2.68-2.65,2.66,2.66,0,0,0-2.68,2.65"/>
						<path class="cls-3" d="M36.88,165.41a1.93,1.93,0,1,0,1.94-1.91,1.93,1.93,0,0,0-1.94,1.91"/>
						<path class="cls-4" d="M36.88,165.41a1.93,1.93,0,1,1,1.92,1.94,1.92,1.92,0,0,1-1.92-1.94m-.94,0a2.87,2.87,0,1,0,2.88-2.85,2.86,2.86,0,0,0-2.88,2.85"/>
						<path class="cls-3" d="M405.09,54a1.8,1.8,0,1,0,1.8-1.78,1.79,1.79,0,0,0-1.8,1.78"/>
						<path class="cls-4" d="M405.09,54a1.8,1.8,0,1,1,1.79,1.81A1.78,1.78,0,0,1,405.09,54m-.94,0a2.74,2.74,0,1,0,2.75-2.72A2.74,2.74,0,0,0,404.15,54"/>
						<path class="cls-3" d="M326.39,29.87a2.24,2.24,0,1,0,2.24-2.23,2.23,2.23,0,0,0-2.24,2.23"/>
						<path class="cls-4" d="M326.39,29.87a2.24,2.24,0,1,1,2.22,2.25,2.23,2.23,0,0,1-2.22-2.25m-.94,0a3.18,3.18,0,1,0,3.19-3.15,3.19,3.19,0,0,0-3.19,3.15"/>
					</g>
				</g>
			</g>
		</symbol>
	<?php endif; ?>

	<symbol id="barkoder_logo" viewBox="0 0 178.98 30">
		<defs>
			<clipPath id="clip-path">
				<rect class="cls-1" width="178.98" height="30"/>
			</clipPath>
		</defs>
		<title>Barkoder logo</title>
		<g id="Layer_2" data-name="Layer 2">
			<g id="Layer_1-2" data-name="Layer 1">
				<g class="cls-2">
					<path fill="var(--logo-color)" d="M14.57,29.21l0-.05a11,11,0,0,1-4.23.84,8.2,8.2,0,0,1-7.25-3.88v2.07a1.37,1.37,0,0,1-1.5,1.55A1.47,1.47,0,0,1,0,28.19V1.52a1.61,1.61,0,0,1,3.22,0v8.79C4.55,8,7.42,6.73,10.38,6.73a10.91,10.91,0,0,1,11.3,11c.13,5.12-2.3,9.49-7.11,11.48m.62-3.93a9.14,9.14,0,0,0,3.26-7.51,10.44,10.44,0,0,0-.66-3.27,8.08,8.08,0,0,0-7.55-4.72c-4,.18-7,2.91-7,6.8v3.49c0,4.32,3.4,6.88,7.42,6.88a8.3,8.3,0,0,0,4.55-1.67"/>
					<path fill="var(--logo-color)" d="M32,7.57a10.64,10.64,0,0,1,4.72-.84c2.52,0,5.39.84,7,3.45V8.5a1.49,1.49,0,0,1,1.59-1.59A1.54,1.54,0,0,1,46.87,8.5V28.1a1.52,1.52,0,0,1-1.64,1.59,1.47,1.47,0,0,1-1.59-1.59V26c-1.28,2.56-4.54,4-7.15,4a11.09,11.09,0,0,1-6.35-1.9,11.69,11.69,0,0,1-4.95-10.37A10.91,10.91,0,0,1,32,7.53Zm11.69,12.5V16.58c0-4.37-3-6.62-7-6.8a7.88,7.88,0,0,0-7.55,4.72,9.66,9.66,0,0,0-.67,3.27,9,9,0,0,0,3.23,7.51A8.54,8.54,0,0,0,36.18,27c4.07,0,7.24-2.47,7.46-6.88"/>
					<path fill="var(--logo-color)" d="M56.15,10.66c1.41-3,4.06-3.75,6.57-3.75A1.48,1.48,0,0,1,64.4,8.45c0,1-.66,1.51-1.68,1.51-4.54,0-6.49,3.62-6.49,8.08V28a1.55,1.55,0,0,1-1.59,1.55A1.51,1.51,0,0,1,53,28V8.45c0-1.94,3.14-2.11,3.14,0Z"/>
					<path fill="var(--logo-color)" d="M70.46,18.21l11-10.93c1.73-1.54,4,.62,2.3,2.21l-9,8.72L84,27.15a1.58,1.58,0,1,1-2.52,1.9Z"/>
					<path fill="var(--logo-color)" d="M68.82,29.76h0a1.61,1.61,0,0,1-1.61-1.61V2.2a1.61,1.61,0,1,1,3.22,0v26a1.61,1.61,0,0,1-1.61,1.61"/>
					<path fill="var(--logo-color)" d="M107.25,20.71a1.22,1.22,0,0,0-1.15.81A8.4,8.4,0,0,1,104.73,24a8.7,8.7,0,0,1-6.36,2.92A8.23,8.23,0,0,1,92.06,24a7.62,7.62,0,0,1-1.4-2.42,1.23,1.23,0,0,0-1.15-.82H87.84a.62.62,0,0,0-.59.78,11,11,0,0,0,2.29,4.41,11.48,11.48,0,0,0,19.93-4.41.62.62,0,0,0-.59-.78ZM96,10a9.7,9.7,0,0,1,2.34-.3,10.85,10.85,0,0,1,2.43.3,7.68,7.68,0,0,1,5.33,5,1.23,1.23,0,0,0,1.15.82h1.6a.62.62,0,0,0,.6-.78,11.12,11.12,0,0,0-7.8-8A13.89,13.89,0,0,0,95,7a11,11,0,0,0-7.74,8,.61.61,0,0,0,.59.78h1.65A1.22,1.22,0,0,0,90.67,15,7.7,7.7,0,0,1,96,10"/>
					<path fill="var(--logo-color)" d="M125.06,6.73c2.95,0,5.82,1.24,7.15,3.58V1.52a1.61,1.61,0,0,1,3.22,0V28.19a1.46,1.46,0,0,1-1.63,1.54,1.36,1.36,0,0,1-1.5-1.54V26.11A8.18,8.18,0,0,1,125.06,30a11.24,11.24,0,0,1-4.24-.84l0,.05c-4.81-2-7.24-6.36-7.11-11.48a10.91,10.91,0,0,1,11.31-11m7.15,13.34V16.58c0-3.89-3-6.62-7-6.8a8.08,8.08,0,0,0-7.55,4.72,10.73,10.73,0,0,0-.66,3.27,9.14,9.14,0,0,0,3.26,7.51A8.3,8.3,0,0,0,124.79,27c4,0,7.42-2.56,7.42-6.88"/>
					<path fill="var(--logo-color)" d="M154.85,7.09c5,1.36,8.08,5.43,8.17,11.08v-.05c.09,1-.35,2-2.16,2H143.42a7.92,7.92,0,0,0,8.08,6.63,9.54,9.54,0,0,0,5.87-1.86c1.55-1.41,3.84.4,2.12,2.17a11.27,11.27,0,0,1-7.86,2.64,11.42,11.42,0,0,1-9-3.92C137.9,19.54,140,9.38,148.19,7.09a12.4,12.4,0,0,1,6.62,0ZM143.29,17.46h16.64a8.08,8.08,0,0,0-6.05-7.5h.05a9.19,9.19,0,0,0-4.77,0,7.94,7.94,0,0,0-5.87,7.46"/>
					<path fill="var(--logo-color)" d="M170.72,10.66c1.42-3,4.07-3.75,6.58-3.75A1.48,1.48,0,0,1,179,8.45c0,1-.66,1.51-1.68,1.51-4.55,0-6.49,3.62-6.49,8.08V28a1.55,1.55,0,0,1-1.59,1.55A1.51,1.51,0,0,1,167.59,28V8.45c0-1.94,3.13-2.11,3.13,0Z"/>
					<path fill="var(--logo-hyphen-color)" d="M112.06,18.26h0a1.22,1.22,0,0,1-1.22,1.22h-25a1.23,1.23,0,1,1,0-2.45h25a1.22,1.22,0,0,1,1.22,1.23"/>
				</g>
			</g>
		</g>
	</symbol>

	<symbol id="dots" viewBox="0 0 106 179">
		<path id="Shape_copy" data-name="Shape copy" class="cls-1" fill="var(--dots-color)" d="M1197.59,293.8a4.4,4.4,0,1,1,4.41-4.4A4.4,4.4,0,0,1,1197.59,293.8Zm0,42.551a4.4,4.4,0,1,1,4.41-4.4A4.4,4.4,0,0,1,1197.59,336.346Zm0,42.551a4.4,4.4,0,1,1,4.41-4.4A4.4,4.4,0,0,1,1197.59,378.9Zm0,42.551a4.4,4.4,0,1,1,4.41-4.4A4.4,4.4,0,0,1,1197.59,421.448Zm0,42.552a4.4,4.4,0,1,1,4.41-4.4A4.4,4.4,0,0,1,1197.59,464ZM1165.2,293.8a4.4,4.4,0,1,1,4.4-4.4A4.4,4.4,0,0,1,1165.2,293.8Zm0,42.551a4.4,4.4,0,1,1,4.4-4.4A4.4,4.4,0,0,1,1165.2,336.346Zm0,42.551a4.4,4.4,0,1,1,4.4-4.4A4.4,4.4,0,0,1,1165.2,378.9Zm0,42.551a4.4,4.4,0,1,1,4.4-4.4A4.4,4.4,0,0,1,1165.2,421.448Zm0,42.552a4.4,4.4,0,1,1,4.4-4.4A4.4,4.4,0,0,1,1165.2,464Zm-32.4-170.2a4.4,4.4,0,1,1,4.41-4.4A4.408,4.408,0,0,1,1132.8,293.8Zm0,42.551a4.4,4.4,0,1,1,4.41-4.4A4.408,4.408,0,0,1,1132.8,336.346Zm0,42.551a4.4,4.4,0,1,1,4.41-4.4A4.407,4.407,0,0,1,1132.8,378.9Zm0,42.551a4.4,4.4,0,1,1,4.41-4.4A4.407,4.407,0,0,1,1132.8,421.448Zm0,42.552a4.4,4.4,0,1,1,4.41-4.4A4.407,4.407,0,0,1,1132.8,464Zm-32.39-170.2a4.4,4.4,0,1,1,4.4-4.4A4.4,4.4,0,0,1,1100.41,293.8Zm0,42.551a4.4,4.4,0,1,1,4.4-4.4A4.4,4.4,0,0,1,1100.41,336.346Zm0,42.551a4.4,4.4,0,1,1,4.4-4.4A4.4,4.4,0,0,1,1100.41,378.9Zm0,42.551a4.4,4.4,0,1,1,4.4-4.4A4.4,4.4,0,0,1,1100.41,421.448Zm0,42.552a4.4,4.4,0,1,1,4.4-4.4A4.4,4.4,0,0,1,1100.41,464Z" transform="translate(-1096 -285)"/>
	</symbol>
	
	<symbol id="performance" viewBox="0 0 512 512">
		<title>Performance
		</title>
		<g id="Layer_2" data-name="Layer 2">
			<g id="Layer_1-2" data-name="Layer 1">
				<circle class="cls-1" cx="256" cy="256" r="202.5"/>
				<path d="M144.31,94.1A9.9,9.9,0,0,1,134.08,104,10.25,10.25,0,0,1,124.27,94,10.13,10.13,0,0,1,134.39,84,9.81,9.81,0,0,1,144.31,94.1Z"/>
				<path d="M178.61,69.36h0a10,10,0,0,0,12.3,5.13,192.9,192.9,0,1,1-89.13,65.88,10,10,0,0,0-1.89-13.9h0a10,10,0,0,0-14.13,1.94A212.74,212.74,0,0,0,256.14,468.73c117.43-.07,212.59-95.28,212.59-212.73A212.87,212.87,0,0,0,184.2,55.69,10,10,0,0,0,178.61,69.36Z"/>
				<path d="M256,20A236,236,0,0,1,422.88,422.88,236,236,0,0,1,89.12,89.12,234.48,234.48,0,0,1,256,20m0-20C114.62,0,0,114.62,0,256S114.62,512,256,512,512,397.38,512,256,397.38,0,256,0Z"/>
				<path class="cls-2" d="M223.54,386.29a1,1,0,0,1-.22,2A72.1,72.1,0,0,1,212.73,387c-49.26-11.38-83.37-43.49-98.8-95-5.44-18.14-6.53-37-4.56-56.1,6.17-60,49.94-110.62,105.92-124.48,34.53-8.55,67.52-3.62,98.85,14.24.57.33,1.9,1.2,1.9,1.2l-33.93,35.57s-15.24-6.73-23-8.71c-33.4-8.54-63.64-.9-90.19,22.54-19.45,17.16-30.29,39.55-35.38,66a128.88,128.88,0,0,0-1.11,39.56c5.94,50.18,41.05,92.41,87.81,103.75C221.16,385.82,222.28,386.06,223.54,386.29Z"/>
				<path class="cls-3" d="M342.92,136.63a3.79,3.79,0,0,1,6,4.5c-22.5,42.17-70.37,131.86-71.62,134a26.77,26.77,0,0,1-26.19,12.7c-11.81-1.71-20.7-9.61-23.09-20.35-2-9.08-.21-17.45,6.14-24.31C240.15,236.74,309.7,169,342.92,136.63Z"/>
				<path class="cls-2" d="M366,166.22c15,12.72,23.9,29.17,32.56,46.93l-43.88,19.77c-.33-.86-.48-1.35-.7-1.92-3.31-9.31-6.28-13.57-10.55-19.82a2.28,2.28,0,0,1-.23-2.37q11.12-21,22.39-41.85Z"/>
			</g>
		</g>
	</symbol>

	<symbol id="future" viewBox="0 0 128 123.57">
		<defs>
			<clipPath id="clip-path" transform="translate(0 0)">
				<rect class="cls-1" width="128" height="123.57"/>
			</clipPath>
		</defs>
		<title>Welcome to the future image</title>
		<g id="Layer_2" data-name="Layer 2">
			<g id="Layer_1-2" data-name="Layer 1">
				<g class="cls-2">
					<path class="cls-3" d="M115.26,111.85a7.35,7.35,0,0,0-9.55-2.95c-.25-12.15-20.12-12.21-20.62,0a7.35,7.35,0,0,0-9.55,2.95,6.33,6.33,0,0,0-8.38-1.91v-5H60.84v5a6.33,6.33,0,0,0-8.38,1.91,7.34,7.34,0,0,0-9.55-2.95c-.19-12.22-20.63-12.21-20.82,0a7.37,7.37,0,0,0-9.56,2.95c-1.86-2.73-5.56-3.8-7.53-1.91v8.77H123v-8.77c-2-1.24-5.55-.68-7.74,1.91" transform="translate(0 0)"/>
					<path d="M115.75,110.14a8.4,8.4,0,0,0-8.71-2.7,10.64,10.64,0,0,0-11.43-8.75h0a10.62,10.62,0,0,0-11.43,8.74,8.41,8.41,0,0,0-8.72,2.7,7.3,7.3,0,0,0-7.25-1.78v-3.43h-2.1v8.43h2.1V110.6a5.28,5.28,0,0,1,6.51,1.91h0a5.64,5.64,0,0,1,.88,3H77.7a7.88,7.88,0,0,0-.93-3.65,6.32,6.32,0,0,1,10.52.37,10.45,10.45,0,0,0-2.22,6.44h2.11c-.16-10.93,17-10.93,16.86,0h2.1a10.44,10.44,0,0,0-2.21-6.44,6.31,6.31,0,0,1,10.51-.37,7.87,7.87,0,0,0-.92,3.65h2.11a5.29,5.29,0,0,1,7.37-5v-2.23a7.32,7.32,0,0,0-7.25,1.77m-13.33.55a10.56,10.56,0,0,0-13.63,0,8.27,8.27,0,0,0-2.6-2.36c.82-10.16,18-10.16,18.83,0a8.38,8.38,0,0,0-2.6,2.36" transform="translate(0 0)"/>
					<path d="M59.79,104.93v3.44a7.32,7.32,0,0,0-7.25,1.77,8.41,8.41,0,0,0-8.72-2.7,10.63,10.63,0,0,0-11.43-8.75h0A10.62,10.62,0,0,0,21,107.44a8.4,8.4,0,0,0-8.71,2.7A7.3,7.3,0,0,0,5,108.36v2.24a5.29,5.29,0,0,1,7.37,5h2.11a7.75,7.75,0,0,0-.92-3.65,6.32,6.32,0,0,1,10.51.37,10.51,10.51,0,0,0-2.21,6.44H24c-.14-10.94,17-10.93,16.86,0h2.11a10.51,10.51,0,0,0-2.21-6.44,6.31,6.31,0,0,1,10.51-.37,7.88,7.88,0,0,0-.93,3.65h2.11a5.66,5.66,0,0,1,.88-3h0a5.28,5.28,0,0,1,6.51-1.91v2.76h2.1v-8.43Zm-20.58,5.76a10.56,10.56,0,0,0-13.63,0,8.38,8.38,0,0,0-2.6-2.36c.82-10.16,18-10.16,18.83,0a8.27,8.27,0,0,0-2.6,2.36" transform="translate(0 0)"/>
					<path class="cls-4" d="M44.93,36.33h80.55V13.8c0-6.2-4.25-11.28-9.45-11.28H12C6.75,2.52,2.5,7.6,2.5,13.8V36.33Z" transform="translate(0 0)"/>
					<path class="cls-4" d="M49.3,19.52a6,6,0,1,1-6-6,6,6,0,0,1,6,6" transform="translate(0 0)"/>
					<path d="M116,0H12C5.38,0,0,6.2,0,13.8v96c0,7.61,5.38,13.8,12,13.8l104.1,0c6.6,0,12-6.2,12-13.8V13.8C128,6.2,122.62,0,116,0M123,109.75c.09,11.14-11.37,8.56-18.41,8.74-11.92-.11-86.35.28-89.61.16C9.67,118.46,5,116.93,5,109.77V38.85H22.38A2.56,2.56,0,0,0,25,36.5a2.51,2.51,0,0,0-2.32-2.7H5.05v-20c0-4.75,3.17-8.75,6.92-8.75H116.05c3.75,0,6.92,4,6.92,8.75v20H45a2.57,2.57,0,0,0-2.61,2.35,2.51,2.51,0,0,0,2.36,2.68H123Z" transform="translate(0 0)"/>
					<path d="M33.73,33.8h0a2.53,2.53,0,0,0-2.53,2.53,2.53,2.53,0,1,0,2.53-2.53" transform="translate(0 0)"/>
					<path class="cls-5" d="M78.32,25.67h28.6a6,6,0,1,0,.25-12.05H78.32a6,6,0,1,0-.25,12.05Z" transform="translate(0 0)"/>
					<path d="M106.92,11.12H78.32A8.54,8.54,0,1,0,78,28.19H107a8.54,8.54,0,1,0,.3-17.07Zm0,12.05H78.32a3.5,3.5,0,0,1,0-7h28.6a3.5,3.5,0,0,1,0,7" transform="translate(0 0)"/>
					<path class="cls-6" d="M43.21,25.67a6,6,0,1,0-6-6,6,6,0,0,0,6,6" transform="translate(0 0)"/>
					<path class="cls-6" d="M21,25.67a6,6,0,1,0-6.05-6,6,6,0,0,0,6.05,6" transform="translate(0 0)"/>
					<path d="M21,11.12a8.55,8.55,0,1,0,8.56,8.55A8.55,8.55,0,0,0,21,11.12m0,12.05a3.5,3.5,0,1,1,3.5-3.5,3.52,3.52,0,0,1-3.5,3.5" transform="translate(0 0)"/>
					<path d="M43.21,11.12a8.54,8.54,0,1,0,8.55,8.52,8.51,8.51,0,0,0-8.55-8.52m0,12.05a3.5,3.5,0,1,1,3.5-3.5,3.51,3.51,0,0,1-3.5,3.5" transform="translate(0 0)"/>
					<path class="cls-7" d="M70.72,95.74H58L53.18,80.91A30.1,30.1,0,0,1,64.33,47.23,30.09,30.09,0,0,1,75.49,80.91Z" transform="translate(0 0)"/>
					<path class="cls-3" d="M56.43,91,58,95.74H70.72l4.77-14.83a30.08,30.08,0,0,0,.7-15.75C70.79,81.1,62.22,88,56.43,91" transform="translate(0 0)"/>
					<path class="cls-8" d="M64.33,65.11A6.38,6.38,0,1,1,58,71.49a6.38,6.38,0,0,1,6.38-6.38" transform="translate(0 0)"/>
					<polygon class="cls-8" points="60.5 95.74 59.23 102.13 69.44 102.13 68.16 95.74 60.5 95.74"/>
					<path class="cls-9" d="M51.57,104.68l1-6.74a2.56,2.56,0,0,1,2.53-2.2H58l-4.49-14a15,15,0,0,0-1.89,22.9" transform="translate(0 0)"/>
					<path class="cls-9" d="M77.1,104.68l-1-6.74a2.56,2.56,0,0,0-2.53-2.2H70.72l4.48-14a15.08,15.08,0,0,1,1.9,22.9" transform="translate(0 0)"/>
					<rect class="cls-10" x="57.95" y="82.98" width="2.55" height="2.55"/>
					<rect class="cls-10" x="63.06" y="82.98" width="2.55" height="2.55"/>
					<rect class="cls-10" x="68.16" y="82.98" width="2.55" height="2.55"/>
					<path class="cls-10" d="M73.31,57.45h-18c-.45.83-.87,1.68-1.24,2.55H74.55c-.37-.87-.79-1.72-1.24-2.55" transform="translate(0 0)"/>
					<path class="cls-9" d="M74,58.72a30,30,0,0,0-9.63-11.48,30,30,0,0,0-9.62,11.48Z" transform="translate(0 0)"/>
					<path d="M64.33,79.15a7.66,7.66,0,1,0-7.66-7.66,7.66,7.66,0,0,0,7.66,7.66m0-12.77a5.11,5.11,0,1,1-5.1,5.11,5.11,5.11,0,0,1,5.1-5.11" transform="translate(0 0)"/>
					<path d="M51.57,106a1.12,1.12,0,0,0,.4-.07,1.27,1.27,0,0,0,.86-1l1-6.74A1.29,1.29,0,0,1,55.06,97H59l-1,4.85a1.28,1.28,0,0,0,1,1.51l.26,0H69.44a1.28,1.28,0,0,0,1.28-1.27l0-.26-1-4.85h3.89a1.28,1.28,0,0,1,1.26,1.1l1,6.74a1.25,1.25,0,0,0,.86,1,1.09,1.09,0,0,0,.4.07,1.27,1.27,0,0,0,.9-.38,16.3,16.3,0,0,0,0-23,16.62,16.62,0,0,0-1.33-1.19v0A31.26,31.26,0,0,0,65.08,46.19a1.31,1.31,0,0,0-1.49,0A31.25,31.25,0,0,0,52,81.3v0a16.29,16.29,0,0,0-2.51,22.91,13.72,13.72,0,0,0,1.2,1.33,1.26,1.26,0,0,0,.9.38m16.31-5.11h-7.1L61.55,97h5.57Zm12.3-7.95A13.7,13.7,0,0,1,78,101.63l-.55-3.87a3.85,3.85,0,0,0-3.79-3.29H72.47L75.85,84a13.72,13.72,0,0,1,4.33,9M64.33,48.82a28.78,28.78,0,0,1,7.55,8.63H56.79a28.89,28.89,0,0,1,7.54-8.63M55.5,60H73.17a28.73,28.73,0,0,1,1.1,20.52l-.28.87-4.2,13.08H58.88l-4.2-13.08-.28-.87A28.68,28.68,0,0,1,55.5,60m-7,32.9a13.77,13.77,0,0,1,4.34-9L56.2,94.47H55.06a3.84,3.84,0,0,0-3.79,3.29l-.56,3.87a13.76,13.76,0,0,1-2.23-8.73" transform="translate(0 0)"/>
					<rect x="57.95" y="82.98" width="2.55" height="2.55"/>
					<rect x="63.06" y="82.98" width="2.55" height="2.55"/>
					<rect x="68.16" y="82.98" width="2.55" height="2.55"/>
				</g>
			</g>
		</g>
	</symbol>

	<symbol id="byod" viewBox="0 0 128 128">
		<g>
			<circle fill="#FFE6EA" cx="64" cy="64" r="50.6"/>
			<path d="M36.1,23.5c0,1.4-1.2,2.5-2.6,2.5c-1.3,0-2.4-1.2-2.5-2.5c0-1.4,1.1-2.5,2.5-2.5C35,21,36.1,22.1,36.1,23.5z"/>
			<path fill="#FFD211" d="M97.6,100.3c-1.4,1.5-3.2,2.6-4.9,3.7c-2.8,1.8-5.7,3.5-8.8,4.8c-0.3,0.1-0.7,0.4-1.1,0.3
				c-1.2-0.8-2.5-1.4-3.5-2.4c-1.4-1.6-2.2-3.4-2.2-5.5c0-2.4,0-4.8,0-7.2c0-0.7-0.2-1.1-0.8-1.5c-3.1-2.1-6.3-4.2-9.4-6.3
				c-2.7-1.9-3-5.4-0.6-7.6c1.5-1.4,3.4-1.6,5.3-0.7c3.9,1.9,10.7,5.3,13.2,6.4c0.5,0.4,1.1,0.7,1.7,0.9c0.7,0.3,1.4-0.2,1.4-0.9
				c0-5.9,0-11.8,0-17.6c0-0.4-0.2-0.8,0.2-1.2c5.5,4.2,7.8,10,9,16.6c0.6,3.5,0.3,6.9,0.4,10.4C97.6,95.1,97.6,97.7,97.6,100.3
				L97.6,100.3z"/>
			<path fill="#FF3346" d="M41.9,108.2c0-22,0-44,0-66c0-3.9,2.8-7.2,6.6-7.8c1-0.2,2.2-0.3,3.1,0c0.7,0.3,0.5,1.5,0.7,2.3
				c0.5,1.8,1.2,2.4,3.1,2.4c5.2,0,10.4,0,15.6,0c2.3,0,3.1-0.6,3.5-3c0.2-1.3,1-1.9,2.2-1.9c4.8,0,8.1,3.4,8.1,8.2
				c0,8.9,0,17.9,0,26.8c0,4.9,0,9.8,0,14.7c-0.5,0-0.9-0.4-1.3-0.6c-4-1.9-7.9-3.9-11.9-5.8c-1.9-0.9-3.9-0.7-5.4,0.7
				c-2.4,2.2-2.1,5.7,0.6,7.6c3.1,2.1,6.2,4.3,9.4,6.3c0.6,0.4,0.8,0.8,0.8,1.5c0,2.4,0,4.8,0,7.3c0,2.1,0.8,3.9,2.2,5.5
				c1,1.1,2.3,1.7,3.5,2.5C82.7,109.2,62.5,119.1,41.9,108.2L41.9,108.2z"/>
			<path d="M82.9,110.6c-0.1,0-0.2,0-0.3,0l-0.3,0l-0.3-0.2c-0.3-0.2-0.6-0.4-0.9-0.5c-1-0.6-2-1.2-2.9-2.2c-1.7-1.9-2.6-4.1-2.6-6.5
				c0-2.9,0-5.2,0-7.3c0-0.1,0-0.2,0-0.2l-0.1-0.1c-3.4-2.3-6.5-4.3-9.4-6.3c-1.7-1.2-2.7-2.9-2.8-4.8c-0.1-1.9,0.6-3.7,2.1-5.1
				c1.9-1.8,4.6-2.2,7-1c1,0.5,2.2,1.1,3.5,1.7c3.7,1.8,7.8,3.8,9.6,4.6l0.2,0.1c0.2,0.2,0.5,0.3,0.8,0.5v-1.2c0-5.2,0-10.4,0-15.5
				l0-0.1c0-0.4-0.2-1.4,0.7-2.2l0.9-0.8l1,0.8c5.1,3.9,8.1,9.4,9.6,17.5c0.5,2.7,0.5,5.3,0.4,7.9c0,0.9,0,1.8,0,2.8
				c0,1.8,0,3.7,0,5.5v3l-0.4,0.4c-1.4,1.5-3.1,2.6-4.7,3.6l-0.5,0.3c-2.4,1.6-5.6,3.5-9.1,4.9l-0.2,0.1
				C83.9,110.4,83.5,110.6,82.9,110.6L82.9,110.6z M69.4,78.8c-0.8,0-1.5,0.3-2.1,0.9c-0.8,0.7-1.2,1.7-1.1,2.6c0.1,1,0.6,1.9,1.6,2.6
				c2.9,2,5.9,4,9.3,6.3c1,0.7,1.5,1.6,1.5,2.8c0,2.1,0,4.3,0,7.2c0,1.7,0.6,3.2,1.8,4.5c0.6,0.6,1.4,1.1,2.2,1.6
				c0.2,0.1,0.3,0.2,0.4,0.3l0.2-0.1c3.3-1.3,6.3-3.2,8.6-4.7l0.5-0.3c1.4-0.9,2.7-1.7,3.8-2.8v-1.8c0-1.8,0-3.6,0-5.4
				c0-0.9,0-1.9,0-2.8c0-2.5,0.1-4.9-0.4-7.3c-1.1-6-3.1-10.4-6.3-13.7c0,4.5,0,9,0,13.6v2c0,0.9-0.4,1.7-1.2,2.1
				c-0.7,0.5-1.6,0.5-2.4,0.1c-0.7-0.3-1.3-0.6-1.8-1c-1.9-0.8-6-2.9-9.6-4.6c-1.3-0.6-2.5-1.2-3.5-1.7C70.4,78.9,69.9,78.8,69.4,78.8
				L69.4,78.8z"/>
			<path d="M88.1,65.5c-0.4,0.3-0.2,0.8-0.2,1.2c0,6.3,0,12.7,0,19.1c-1.1-0.5-2.2-0.9-3.1-1.6c0-4.9,0-9.8,0-14.7
				c0-8.9,0-17.8,0-26.7c0-4.8-3.3-8.1-8.1-8.1c-1.3,0-2,0.6-2.2,1.9c-0.4,2.3-1.2,3-3.5,3c-5.2,0-10.3,0-15.5,0
				c-1.9,0-2.6-0.6-3.1-2.4c-0.2-0.8,0-2-0.7-2.3c-0.9-0.3-2.1-0.2-3.1,0c-3.8,0.6-6.6,3.8-6.6,7.7c0,21.9,0,43.8,0,65.7
				c-1.2-0.4-2.3-0.9-3.3-1.7c0-3,0-6.1,0.1-9.1c0-8.1,0-16.1,0-24.2c0-0.6,0-1.1-0.6-1.4c-0.5-0.3-0.5-0.9-0.5-1.4c0-2,0-4.1,0-6.1
				c0-0.7,0.2-1.2,0.7-1.7c0.6-0.5,0.6-3,0-3.5c-0.5-0.4-0.7-0.9-0.7-1.5c0-2.1,0-4.3,0-6.4c0-0.4,0-0.9,0.4-1.2
				c0.9-0.5,0.7-1.3,0.7-2c0.1-2.8-0.3-5.7,0.3-8.6c1-4.8,5.2-8.6,10.1-8.6c9.5-0.1,19-0.1,28.5,0c5.7,0.1,10.3,4.9,10.4,10.6
				c0.1,2.5,0,5,0,7.4c0,0.5,0,0.9,0.3,1.3c0.3,0.4,0.3,0.8,0.3,1.3c0,1.7,0,3.3,0,5c0,0.9,0.1,1.7-0.5,2.5c-0.2,0.2-0.1,0.6-0.1,0.9
				C88.1,61.8,88.1,63.7,88.1,65.5L88.1,65.5z"/>
			<path fill="#FFFFFF" d="M63.3,36.2c0.9,0,1.9,0,2.8,0c0.4,0,0.8,0,0.8-0.6c0-0.5-0.4-0.5-0.8-0.5c-1.9,0-3.8,0-5.7,0
				c-0.4,0-0.8,0-0.8,0.5c0,0.5,0.4,0.6,0.8,0.6C61.5,36.2,62.4,36.2,63.3,36.2L63.3,36.2z"/>
			<path d="M68.8,35.7c0,0.8,0.5,1.3,1.2,1.3c0.8,0,1.2-0.5,1.3-1.2c0-0.8-0.4-1.2-1.2-1.2C69.2,34.5,68.8,34.9,68.8,35.7
				L68.8,35.7z"/>
			<path fill="#FFFFFF" d="M56.6,34.8c-0.5,0.1-0.9,0.4-0.9,0.9c0,0.5,0.3,0.9,0.9,0.9c0.6,0,0.9-0.4,0.9-1
				C57.5,35.1,57.1,34.9,56.6,34.8L56.6,34.8z"/>
			<path d="M44.7,17.3L44.7,17.3c0.5,1.2,1.9,1.7,3.1,1.3c5.2-1.8,10.6-2.8,16.3-2.8c12.9,0,25,5,34.1,14.1s14.1,21.2,14.1,34.1
				s-5,25-14.1,34.1S76.9,112.2,64,112.2s-25-5-34.1-14.1S15.8,76.9,15.8,64c0-10.6,3.4-20.6,9.6-28.9c0.8-1.1,0.6-2.6-0.5-3.5
				c-1.1-0.9-2.7-0.6-3.5,0.5c-6.8,9-10.7,20.2-10.6,32.3c0.2,29.3,23.9,52.8,53.2,52.7c29.4,0,53.2-23.8,53.2-53.2S93.7,11,64.3,10.8
				c-6.4,0-12.6,1.1-18.3,3.1C44.7,14.4,44,16,44.7,17.3z"/>
			<path d="M64,5c15.8,0,30.6,6.1,41.7,17.3S123,48.2,123,64s-6.1,30.6-17.3,41.7S79.8,123,64,123s-30.6-6.1-41.7-17.3S5,79.8,5,64
				s6.1-30.6,17.3-41.7S48.2,5,64,5 M64,0C28.6,0,0,28.7,0,64s28.6,64,64,64s64-28.7,64-64S99.3,0,64,0z"/>
		</g>
	</symbol>

	<symbol id="affordable" viewBox="0 0 128 123.57">
		<defs>
			<clipPath id="clip-path" transform="translate(0)">
				<rect class="cls-1" width="128" height="123.57"/>
			</clipPath>
		</defs>
		<title>Affordable image</title>
		<g id="Layer_2" data-name="Layer 2">
			<g id="Layer_1-2" data-name="Layer 1">
				<g class="cls-2">
					<path class="cls-3" d="M44.92,36.33h80.55V13.8c0-6.2-4.25-11.27-9.45-11.27H12C6.75,2.53,2.5,7.6,2.5,13.8V36.33Z" transform="translate(0)"/>
					<path class="cls-3" d="M49.3,19.53a6,6,0,1,1-6-6,6,6,0,0,1,6,6" transform="translate(0)"/>
					<path d="M116,0H12C5.38,0,0,6.2,0,13.8v96c0,7.6,5.38,13.8,12,13.8l104.1,0c6.6,0,12-6.2,12-13.8V13.8C128,6.2,122.63,0,116,0m7,109.75c.08,11.14-11.38,8.56-18.42,8.74-11.92-.11-86.35.28-89.61.16C9.67,118.46,5,116.93,5,109.77V38.85H22.38A2.57,2.57,0,0,0,25,36.5a2.52,2.52,0,0,0-2.33-2.7H5.05v-20c0-4.75,3.18-8.75,6.93-8.75H116.05c3.75,0,6.93,4,6.93,8.75v20H45a2.57,2.57,0,0,0-2.6,2.35,2.48,2.48,0,0,0,2.35,2.67H123Z" transform="translate(0)"/>
					<path d="M33.73,33.8h0a2.52,2.52,0,0,0-2.53,2.52,2.53,2.53,0,1,0,5.05,0,2.54,2.54,0,0,0-2.52-2.52" transform="translate(0)"/>
					<path class="cls-4" d="M82.46,59.66a8.67,8.67,0,1,0,8.66,8.67,8.66,8.66,0,0,0-8.66-8.67" transform="translate(0)"/>
					<path class="cls-5" d="M82.46,53.48A14.85,14.85,0,1,1,67.61,68.33,14.85,14.85,0,0,1,82.46,53.48m8.66,14.85A8.66,8.66,0,1,0,82.46,77a8.66,8.66,0,0,0,8.66-8.66" transform="translate(0)"/>
					<polygon class="cls-5" points="68.85 112.87 71.32 112.87 71.32 118.67 98.55 118.67 98.55 112.87 96.07 112.87 96.07 105.45 92.36 105.45 92.36 98.02 94.83 98.02 94.83 90.6 97.31 90.6 97.31 83.17 70.08 83.17 70.08 90.6 67.61 90.6 67.61 98.02 65.14 98.02 65.14 105.45 68.85 105.45 68.85 112.87"/>
					<polygon class="cls-5" points="31.72 83.17 35.44 83.17 35.44 90.6 32.96 90.6 32.96 98.03 30.49 98.03 30.49 105.45 34.2 105.45 34.2 118.67 61.42 118.67 61.42 105.45 57.71 105.45 57.71 98.03 60.19 98.03 60.19 90.6 62.66 90.6 62.66 83.17 58.95 83.17 58.95 75.75 56.47 75.75 56.47 68.33 60.19 68.33 60.19 60.9 32.96 60.9 32.96 68.33 29.25 68.33 29.25 75.75 31.72 75.75 31.72 83.17"/>
					<rect x="49.04" y="67.28" width="2.47" height="2.25"/>
					<rect x="51.51" y="82.12" width="2.47" height="2.25"/>
					<rect x="49.04" y="96.97" width="2.47" height="2.25"/>
					<rect x="50.27" y="111.82" width="2.47" height="2.25"/>
					<rect x="55.23" y="111.82" width="2.47" height="2.25"/>
					<rect class="cls-6" x="37.9" y="74.7" width="2.47" height="2.25"/>
					<rect class="cls-6" x="41.61" y="89.55" width="2.47" height="2.25"/>
					<rect class="cls-6" x="39.14" y="104.4" width="2.47" height="2.25"/>
					<rect class="cls-6" x="86.16" y="89.55" width="2.47" height="2.25"/>
					<rect class="cls-6" x="84.92" y="105.64" width="2.47" height="2.25"/>
					<rect x="77.5" y="111.82" width="2.47" height="2.25"/>
					<rect x="73.79" y="96.97" width="2.47" height="2.25"/>
					<path class="cls-7" d="M92.24,68.4a9.79,9.79,0,1,0-9.79,9.79,9.8,9.8,0,0,0,9.79-9.79m-17.33,0a7.54,7.54,0,1,1,7.54,7.54,7.55,7.55,0,0,1-7.54-7.54" transform="translate(0)"/>
					<polygon points="30.59 84.38 34.3 84.38 34.3 89.55 31.82 89.55 31.82 96.97 29.35 96.97 29.35 106.65 33.06 106.65 33.06 118.67 35.31 118.67 35.31 114.08 47.8 114.08 47.8 111.82 35.31 111.82 35.31 104.4 31.6 104.4 31.6 99.23 46.56 99.23 46.56 96.97 34.08 96.97 34.08 91.8 36.55 91.8 36.55 84.38 49.04 84.38 49.04 82.13 32.84 82.13 32.84 74.7 30.36 74.7 30.36 69.53 46.56 69.53 46.56 67.27 34.08 67.27 34.08 62.1 59.05 62.1 59.05 67.27 55.34 67.27 55.34 74.7 42.85 74.7 42.85 76.95 57.81 76.95 57.81 84.38 61.52 84.38 61.52 89.55 46.56 89.55 46.56 91.8 59.05 91.8 59.05 96.97 56.58 96.97 56.58 104.4 44.09 104.4 44.09 106.65 60.29 106.65 60.29 118.67 62.54 118.67 62.54 104.4 58.83 104.4 58.83 99.23 61.3 99.23 61.3 91.8 63.78 91.8 63.78 82.13 60.06 82.13 60.06 74.7 57.59 74.7 57.59 69.53 61.3 69.53 61.3 59.85 31.82 59.85 31.82 67.27 28.11 67.27 28.11 76.95 30.59 76.95 30.59 84.38"/>
					<path d="M67.71,114.08h2.48v4.59h2.25v-6.85H70v-3.93H82.45v-2.25H70V104.4H66.25V99.23h2.48V91.8h15V89.55H71.2V84.38h25v5.17H93.7V97h-15v2.26H91.22v7.42h3.72v5.17H82.45v2.26h15v4.59h2.25v-6.85H97.19V104.4H93.48V99.23H96V91.8h2.48V82.13H90.62a16,16,0,1,0-16.34,0H69v7.43H66.47V97H64v9.68h3.71Zm1-45.68A13.72,13.72,0,1,1,82.45,82.12,13.73,13.73,0,0,1,68.73,68.4" transform="translate(0)"/>
					<path class="cls-8" d="M78.32,25.67h28.6a6,6,0,0,0,.25-12.06H78.32a6,6,0,1,0-.25,12.06Z" transform="translate(0)"/>
					<path d="M106.92,11.11H78.32A8.54,8.54,0,0,0,78,28.19H107a8.54,8.54,0,1,0,.3-17.08Zm0,12.06H78.32a3.5,3.5,0,1,1,0-7h28.6a3.5,3.5,0,0,1,0,7" transform="translate(0)"/>
					<path class="cls-9" d="M43.21,25.67a6,6,0,1,0-6-6,6,6,0,0,0,6,6" transform="translate(0)"/>
					<path class="cls-9" d="M21,25.67a6,6,0,1,0-6.05-6,6,6,0,0,0,6.05,6" transform="translate(0)"/>
					<path d="M21,11.11a8.56,8.56,0,1,0,8.56,8.56A8.55,8.55,0,0,0,21,11.11m0,12.06a3.5,3.5,0,1,1,3.5-3.5,3.52,3.52,0,0,1-3.5,3.5" transform="translate(0)"/>
					<path d="M43.21,11.11a8.54,8.54,0,1,0,8.55,8.53,8.52,8.52,0,0,0-8.55-8.53m0,12.06a3.5,3.5,0,1,1,3.5-3.5,3.51,3.51,0,0,1-3.5,3.5" transform="translate(0)"/>
				</g>
			</g>
		</g>
	</symbol>

	<symbol id="android" viewBox="0 0 157.53 24">
		<title>Android logo</title>
		<g id="Layer_2" data-name="Layer 2">
			<g id="svg8">
				<g id="layer1">
					<path id="path80319" fill="var(--andro_glava)" d="M146.8,7.25l3.48-6a.73.73,0,0,0-.26-1,.7.7,0,0,0-1,.26l-3.52,6.1a22,22,0,0,0-17.94,0L124.07.52a.7.7,0,0,0-1-.26.72.72,0,0,0-.26,1l3.48,6A20.76,20.76,0,0,0,115.6,23.68h41.93A20.76,20.76,0,0,0,146.8,7.25ZM126.94,17.79A1.76,1.76,0,1,1,128.7,16,1.76,1.76,0,0,1,126.94,17.79Zm19.25,0A1.76,1.76,0,1,1,148,16,1.76,1.76,0,0,1,146.19,17.79Z"/>
					<g id="g80302">
						<path id="path825" d="M7.54,7.66c-3.72,0-7.54,3-7.54,8.2C0,20.63,3.36,24,7.54,24a6,6,0,0,0,5-2.32v1a1.07,1.07,0,0,0,1,1H16V8H12.53v2a6.07,6.07,0,0,0-5-2.35Zm.63,3.21a4.8,4.8,0,0,1,4.67,5,4.84,4.84,0,0,1-4.66,5,4.74,4.74,0,0,1-4.61-5A4.67,4.67,0,0,1,8.17,10.87Z"/>
						<path id="path829" d="M20.91,23.7a1,1,0,0,1-1-1V8h3.51V10a5.46,5.46,0,0,1,4.72-2.3,5.85,5.85,0,0,1,6,6v10H31.66a1.08,1.08,0,0,1-1.07-1.07V14.44a3.33,3.33,0,0,0-3.26-3.57c-2.46,0-3.92,2.33-3.92,4.52V23.7Z"/>
						<path id="path833" d="M44.32,7.66c-3.72,0-7.55,3-7.55,8.2,0,4.77,3.37,8.14,7.55,8.14a6.07,6.07,0,0,0,5-2.32v1a1.06,1.06,0,0,0,1,1h2.49V.18h-3.5V10a6.07,6.07,0,0,0-5-2.35Zm.62,3.21a4.8,4.8,0,0,1,4.67,5,4.84,4.84,0,0,1-4.66,5,4.75,4.75,0,0,1-4.61-5A4.67,4.67,0,0,1,44.94,10.87Z"/>
						<path id="path835" d="M57.68,23.7a1,1,0,0,1-1-1V8h3.51v2.61A4.32,4.32,0,0,1,64.4,7.84,7.17,7.17,0,0,1,65.64,8v3.62A5.12,5.12,0,0,0,64,11.29c-2.46,0-3.8,2.32-3.8,4.51v7.9Z"/>
						<path id="path837" d="M86.91,23.7a1,1,0,0,1-1-1V8h3.51V23.7Z"/>
						<path id="path839" d="M99.68,7.66c-3.72,0-7.54,3-7.54,8.2,0,4.77,3.36,8.14,7.54,8.14a6,6,0,0,0,5-2.32v1a1.07,1.07,0,0,0,1,1h2.5V.18h-3.51V10a6.07,6.07,0,0,0-5-2.35Zm.63,3.21a4.8,4.8,0,0,1,4.67,5,4.84,4.84,0,0,1-4.66,5,4.74,4.74,0,0,1-4.61-5A4.67,4.67,0,0,1,100.31,10.87Z"/>
						<path id="path841" d="M87.63,0a2.32,2.32,0,1,1-2.32,2.32A2.31,2.31,0,0,1,87.63,0Z"/>
						<path id="path843" d="M74.89,7.66a8.07,8.07,0,0,0-8.18,8.17A8,8,0,0,0,74.88,24a8.17,8.17,0,1,0,0-16.34Zm0,3.27a4.73,4.73,0,0,1,4.7,4.91,4.7,4.7,0,1,1-9.38.05,4.72,4.72,0,0,1,4.68-5Z"/>
					</g>
				</g>
			</g>
		</g>
	</symbol>
	
	<symbol id="iOS" viewBox="0 0 390.95 175.21">
		<title>iOS logo</title>
		<g id="Layer_2" data-name="Layer 2">
			<g id="Layer_1-2" data-name="Layer 1">
				<path d="M227.71,64a8.33,8.33,0,0,1-2.57,6.35,9.24,9.24,0,0,1-6.63,2.48,8.35,8.35,0,0,1-6.15-2.5,8.51,8.51,0,0,1-2.5-6.29,8.22,8.22,0,0,1,2.57-6.21,9.5,9.5,0,0,1,12.71,0A8.17,8.17,0,0,1,227.71,64Zm-1.62,85.34H211.48V83.59h14.6v65.73Z"/>
				<path d="M323.46,102.81q0,20.7-10.55,33.81-11.36,14.19-31.51,14.19-19.06,0-30.29-13.93Q240.69,124,240.69,104.42q0-20,10.82-33.41,11.63-14.33,31.1-14.33,19.2,0,30.43,13.8Q323.47,83.19,323.46,102.81Zm-15.55.54q0-13.51-6.08-23.27-7-11.62-19.75-11.63-13.12,0-20.15,11.9-6,9.74-6,23.68,0,13.66,6.08,23.39,7.15,11.64,19.88,11.63,13.13,0,20.15-11.9,5.86-9.75,5.87-23.81Z"/>
				<path d="M391,123.76q0,11.64-8.12,18.93-8.93,8-24.89,8-14.74,0-23.67-5.68l3.38-12.2a40.66,40.66,0,0,0,21.1,5.68q8.25,0,12.85-3.72a12.13,12.13,0,0,0,4.6-9.94,12.66,12.66,0,0,0-3.79-9.33q-3.8-3.8-12.58-7-23.94-8.93-23.94-26.11A23,23,0,0,1,344.34,64q8.49-7.19,22.38-7.19,12.43,0,20.7,4.33L383.83,73a35.89,35.89,0,0,0-17.49-4.23q-7.71,0-12,3.79a10.83,10.83,0,0,0-3.65,8.25,11.14,11.14,0,0,0,4.14,9q3.65,3.24,13.25,7,11.78,4.72,17.31,11.09T391,123.76Z"/>
				<path d="M106.15,0c-8.81.35-19.48,5.87-25.8,13.28-5.66,6.55-10.63,17-9.28,27.1,9.83.76,19.86-5,26-12.4S107.29,10.27,106.15,0Zm-3.32,42.22c-12.45.17-24,8.16-30.35,8.16-6.91,0-17.6-7.83-28.9-7.61C28.7,43,15,51.41,7.33,64.77-8.12,91.57,3.39,131.28,18.43,153c7.36,10.63,16.13,22.61,27.66,22.17,11.11-.44,15.3-7.17,28.7-7.17s17.18,7.17,28.92,7c11.94-.23,19.51-10.87,26.82-21.53a96.37,96.37,0,0,0,12.12-24.92c-.26-.11-23.28-8.93-23.52-35.44-.2-22.17,18.11-32.81,18.93-33.33-10.3-15.07-26.33-17.14-32-17.38a28.19,28.19,0,0,0-3.18-.14Z"/>
			</g>
		</g>
	</symbol>

	<symbol id="cordova" viewBox="0 0 146.25 30">
		<title>Cordova logo</title>
		<g id="Layer_2" data-name="Layer 2">
			<g id="Layer_1-2" data-name="Layer 1">
				<path fill="var(--ios_svg_color)" fill-rule="var(--ios_svg_rule)" d="M24.25,0H7.13L0,11.43,2.85,30H7.94l-.36-4.29h2.5L10.43,30H21l.35-4.29h2.5L23.45,30h5.09l2.85-18.57Zm0,22.86H7.13L5.71,11.43,8.56,5.71h4.59l-.31,2.15h5.71l-.31-2.15h4.59l2.85,5.72Zm-3.92-9.11c-.39,0-.71,1.19-.71,2.66s.32,2.65.71,2.65.71-1.19.71-2.65S20.73,13.75,20.33,13.75Zm-9,.22c-.4,0-.72,1.19-.72,2.66s.32,2.65.72,2.65S12,18.1,12,16.63,11.72,14,11.33,14Z"/>
				<path fill="var(--ios_svg_color)" d="M45,25.75c-4.08,0-5.8-3.41-5.8-6.77S41,12.21,45,12.21a4.67,4.67,0,0,1,4.72,3.73h1.47c-.39-3.24-3.28-5-6.19-5-4.85,0-7.27,3.81-7.27,8s2.42,8,7.27,8c3.6,0,6-2.42,6.4-6.19H50C49.69,23.55,47.87,25.75,45,25.75ZM60.58,11c-4.85,0-7.26,3.81-7.26,8s2.41,8,7.26,8,7.25-3.82,7.25-8S65.42,11,60.58,11Zm0,14.79c-4.07,0-5.8-3.41-5.8-6.77s1.73-6.77,5.8-6.77,5.78,3.4,5.78,6.77S64.64,25.75,60.58,25.75Zm18.76-6.49v-.05a3.69,3.69,0,0,0,3-3.92c0-2.78-2.14-4-4.68-4h-7v15.4h1.46V19.84h5.57c2.78-.11,3,2.29,3.08,4.44a6,6,0,0,0,.41,2.4h1.62c-.65-.78-.65-2.89-.71-3.95C81.93,20.9,81.35,19.52,79.34,19.26Zm-1.79-.67H72.07V12.53h5.48c2.2,0,3.32,1.19,3.32,3.06A3.06,3.06,0,0,1,77.55,18.59Zm13.27-7.31H85.5v15.4h5.32c4.64-.11,7.07-2.66,7.07-7.7S95.46,11.39,90.82,11.28Zm-.73,14.15H87V12.53h3.13c4.42,0,6.34,1.85,6.34,6.45S94.51,25.45,90.09,25.43ZM107.23,11c-4.86,0-7.27,3.81-7.27,8s2.41,8,7.27,8,7.24-3.82,7.24-8S112.06,11,107.23,11Zm0,14.79c-4.08,0-5.8-3.41-5.8-6.77s1.72-6.77,5.8-6.77S113,15.61,113,19,111.28,25.75,107.23,25.75Zm19.28-14.47-5,13.78h0l-5-13.78h-1.58l5.72,15.4h1.7l5.72-15.4Zm6.58,0-6.21,15.4h1.57l1.86-4.79h7l1.87,4.79h1.58l-6-15.4Zm-2.33,9.36,3.08-7.89,3,7.89ZM139.34,12h1v2.74h.74V12h1v-.62h-2.75Zm5.87-.62-.75,2.31h0l-.78-2.31h-1v3.36h.69V12.36h0l.82,2.36h.57l.82-2.38h0v2.38h.7V11.36ZM39.53,7h2.12l.5,1.4h1l-2-5.31h-1l-2,5.31h1Zm1-3h0l.79,2.29H39.78ZM44.7,6.4h1.42c1.52,0,1.81-1,1.81-1.63s-.29-1.64-1.81-1.64H43.77V8.44h.93Zm0-2.51h1.38c.49,0,.92.17.92.88a.84.84,0,0,1-.93.87H44.7Zm5.11-.76-2,5.31h1l.5-1.4h2.12l.5,1.4h1L50.8,3.13Zm-.33,3.2L50.29,4h0l.8,2.29Zm6,2.24a2.17,2.17,0,0,0,2.26-2.15h-.9a1.37,1.37,0,0,1-1.36,1.39c-1.14,0-1.62-1-1.62-2s.48-2,1.62-2a1.28,1.28,0,0,1,1.33,1.06h.93A2.09,2.09,0,0,0,55.51,3,2.58,2.58,0,0,0,53,5.79,2.57,2.57,0,0,0,55.51,8.57Zm4.12-2.52h2.42V8.44H63V3.13h-.93V5.24H59.63V3.13H58.7V8.44h.93Zm5.48,0h2.68V5.32H65.11V3.93H68v-.8H64.18V8.44h3.88v-.8h-3Z"/>
			</g>
		</g>
	</symbol>

	<symbol id="ionic" viewBox="0 0 112.69 40">
		<title>Ionic logo</title>
		<g id="Layer_2" data-name="Layer 2">
			<g id="Layer_1-2" data-name="Layer 1">
				<path fill="var(--ionic_svg)" d="M49.22,30.47V14.87h.83v15.6Z"/>
				<path fill="var(--ionic_svg)" d="M61.76,30.85a8,8,0,0,1-8.21-8.18,8.21,8.21,0,0,1,16.42,0A8,8,0,0,1,61.76,30.85Zm0-15.6a7.24,7.24,0,0,0-7.39,7.42,7.39,7.39,0,1,0,14.78,0A7.24,7.24,0,0,0,61.76,15.25Z"/>
				<path fill="var(--ionic_svg)" d="M87,30.47V22.23c0-2.71-.74-4.45-1.91-5.5a6.18,6.18,0,0,0-4.42-1.48c-3.92,0-6.33,2.33-6.33,6.24v9h-.82V14.87h.82v3h.06c1-2.23,3.71-3.38,6.18-3.38a7.8,7.8,0,0,1,5,1.56c1.53,1.29,2.26,3.38,2.26,6.18v8.24Z"/>
				<path fill="var(--ionic_svg)" d="M92.38,30.47V14.87h.82v15.6Z"/>
				<path fill="var(--ionic_svg)" d="M111.77,19.93A7,7,0,0,0,105,15.25a7.18,7.18,0,0,0-5.27,2.09,7.42,7.42,0,0,0-2.15,5.33,7.27,7.27,0,0,0,7.39,7.42,7.08,7.08,0,0,0,6.83-4.53h.91a8.26,8.26,0,0,1-16-2.86,8.24,8.24,0,0,1,16-2.77Z"/>
				<path fill="var(--ionic_svg)" d="M50.52,10a.89.89,0,1,1-.89-.88A.88.88,0,0,1,50.52,10Z"/>
				<path fill="var(--ionic_svg)" d="M93.68,10a.89.89,0,1,1-.89-.88A.89.89,0,0,1,93.68,10Z"/>
				<path fill="var(--ionic_svg)" d="M36,8A2.8,2.8,0,0,0,32,4,20,20,0,1,0,36,8ZM20,39.2A19.2,19.2,0,1,1,31.49,4.63a2.79,2.79,0,0,0,3.88,3.88A19.19,19.19,0,0,1,20,39.2Z"/>
				<path fill="var(--ionic_svg)" d="M20,11.86A8.14,8.14,0,1,0,28.14,20,8.14,8.14,0,0,0,20,11.86Z"/>
			</g>
		</g>
	</symbol>

	<symbol id="xamarin" viewBox="0 0 175.61 40">
		<title>Xamarin logo</title>
		<g id="Layer_2" data-name="Layer 2">
			<g id="Isolation_Mode" data-name="Isolation Mode">
				<path fill="var(--xamarin_svg)" d="M13.12,9.62H16.5a.47.47,0,0,1,.36.18l5.52,10s-.09.09,0,.09.09.09.09,0,.09-.09,0-.09h0l5.61-9.89a.47.47,0,0,1,.36-.18h3.3a.48.48,0,0,1,.44.45v.17L26.66,20l5.43,9.72a.6.6,0,0,1-.17.62c-.09,0-.09,0-.18.09h-3.3c-.18,0-.27-.09-.36-.27l-5.52-10s.09-.09,0-.09-.09-.09-.09,0-.09.09,0,.09h0L17,30.2a1.24,1.24,0,0,1-.36.27H13.3a.48.48,0,0,1-.45-.45c0-.09,0-.09.09-.18L18.29,20l-5.44-9.8c-.09-.17,0-.44.27-.62ZM12.94,0a3.55,3.55,0,0,0-3,1.78L.47,18.26a3.44,3.44,0,0,0,0,3.48L10,38.22A3.55,3.55,0,0,0,13,40H32a3.55,3.55,0,0,0,3-1.78l9.54-16.57a3.49,3.49,0,0,0,0-3.48L34.94,1.78a3.54,3.54,0,0,0-3-1.78ZM171.69,31.36v-10c0-3.3-1.16-4.9-3.56-4.9a4.34,4.34,0,0,0-3,1.34,5,5,0,0,0-1.16,3.47V31.36h-4V13.63h4v2.85H164a6.26,6.26,0,0,1,5.7-3.3c3.92,0,5.88,2.41,5.88,7.31V31.36Zm-19.06,0V13.63h4V31.36Zm2.05-21.74A2.39,2.39,0,0,1,153,9a2.26,2.26,0,0,1-.71-1.61A2.46,2.46,0,0,1,153,5.7a2.6,2.6,0,0,1,3.48,0,2.27,2.27,0,0,1,.09,3.21l-.09.09A2.76,2.76,0,0,1,154.68,9.62Zm-4,7.93a4.28,4.28,0,0,0-2.32-.62,3.31,3.31,0,0,0-2.85,1.51,6.11,6.11,0,0,0-1.07,3.92v9.09h-4V13.63h4V17.1h.09c.8-2.49,2.32-3.74,4.54-3.74a5,5,0,0,1,1.61.27v3.92Zm-21.12,5.7a5,5,0,0,0-2.49.89,2.38,2.38,0,0,0-.71,2,2.2,2.2,0,0,0,.8,1.78,3.6,3.6,0,0,0,2.14.72,4.2,4.2,0,0,0,2.94-1.25,4.32,4.32,0,0,0,1.16-3v-1.6Zm3.84,8.11V29h-.09a6.42,6.42,0,0,1-9.36,1.43,4.79,4.79,0,0,1-1.51-3.83c0-3.48,2-5.44,5.79-5.88l5.17-.71c0-2.41-1.16-3.66-3.39-3.66a10,10,0,0,0-5.88,2V14.7a8.23,8.23,0,0,1,2.94-1.07,14.61,14.61,0,0,1,3.39-.45c4.54,0,6.86,2.32,6.86,7V31.36Zm-17.29,0v-10a6.49,6.49,0,0,0-.8-3.65,3,3,0,0,0-2.76-1.25,3.25,3.25,0,0,0-2.67,1.43,5.87,5.87,0,0,0-1.07,3.47v10h-4V21c0-3-1.16-4.54-3.48-4.54a3.43,3.43,0,0,0-2.67,1.34,6.43,6.43,0,0,0-1.07,3.56v10h-4V13.63h4v2.76h.09a6.37,6.37,0,0,1,5.61-3.21,5.49,5.49,0,0,1,3.12.9,4.52,4.52,0,0,1,1.87,2.58,6.47,6.47,0,0,1,6-3.48c3.83,0,5.79,2.41,5.79,7.22v11ZM82.87,23.25a5,5,0,0,0-2.49.89,2.35,2.35,0,0,0-.71,2,2.2,2.2,0,0,0,.8,1.78,3.58,3.58,0,0,0,2.14.72,4.23,4.23,0,0,0,2.94-1.25,4.31,4.31,0,0,0,1.15-3v-1.6Zm3.74,8.11V29h-.08a6.42,6.42,0,0,1-9.36,1.43,4.79,4.79,0,0,1-1.51-3.83c0-3.48,2-5.44,5.79-5.88L86.61,20c0-2.41-1.15-3.66-3.38-3.66a10,10,0,0,0-5.88,2V14.7a8.45,8.45,0,0,1,2.85-1.07,14.61,14.61,0,0,1,3.39-.45c4.54,0,6.86,2.32,6.86,7V31.36Zm-16.21,0-4.54-8.73-4.64,8.73h-5l7.12-11.23L57,8.91H62l4.09,8.46,4.46-8.46h4.63L68.62,20,75.3,31.36Z"/>
				<path fill="var(--xamarin_svg)" d="M13.12,9.62H16.5a.47.47,0,0,1,.36.18l5.52,10s-.09.09,0,.09.09.09.09,0,.09-.09,0-.09h0l5.61-9.89a.47.47,0,0,1,.36-.18h3.3a.48.48,0,0,1,.44.45v.17L26.66,20l5.43,9.72a.6.6,0,0,1-.17.62c-.09,0-.09,0-.18.09h-3.3c-.18,0-.27-.09-.36-.27l-5.52-10s.09-.09,0-.09-.09-.09-.09,0-.09.09,0,.09h0L17,30.2a1.24,1.24,0,0,1-.36.27H13.3a.48.48,0,0,1-.45-.45c0-.09,0-.09.09-.18L18.29,20l-5.44-9.8c-.09-.17,0-.44.27-.62ZM12.94,0a3.55,3.55,0,0,0-3,1.78L.47,18.26a3.44,3.44,0,0,0,0,3.48L10,38.22A3.55,3.55,0,0,0,13,40H32a3.55,3.55,0,0,0,3-1.78l9.54-16.57a3.49,3.49,0,0,0,0-3.48L34.94,1.78a3.54,3.54,0,0,0-3-1.78ZM171.69,31.36v-10c0-3.3-1.16-4.9-3.56-4.9a4.34,4.34,0,0,0-3,1.34,5,5,0,0,0-1.16,3.47V31.36h-4V13.63h4v2.85H164a6.26,6.26,0,0,1,5.7-3.3c3.92,0,5.88,2.41,5.88,7.31V31.36Zm-19.06,0V13.63h4V31.36Zm2.05-21.74A2.39,2.39,0,0,1,153,9a2.26,2.26,0,0,1-.71-1.61A2.46,2.46,0,0,1,153,5.7a2.6,2.6,0,0,1,3.48,0,2.27,2.27,0,0,1,.09,3.21l-.09.09A2.76,2.76,0,0,1,154.68,9.62Zm-4,7.93a4.28,4.28,0,0,0-2.32-.62,3.31,3.31,0,0,0-2.85,1.51,6.11,6.11,0,0,0-1.07,3.92v9.09h-4V13.63h4V17.1h.09c.8-2.49,2.32-3.74,4.54-3.74a5,5,0,0,1,1.61.27v3.92Zm-21.12,5.7a5,5,0,0,0-2.49.89,2.38,2.38,0,0,0-.71,2,2.2,2.2,0,0,0,.8,1.78,3.6,3.6,0,0,0,2.14.72,4.2,4.2,0,0,0,2.94-1.25,4.32,4.32,0,0,0,1.16-3v-1.6Zm3.84,8.11V29h-.09a6.42,6.42,0,0,1-9.36,1.43,4.79,4.79,0,0,1-1.51-3.83c0-3.48,2-5.44,5.79-5.88l5.17-.71c0-2.41-1.16-3.66-3.39-3.66a10,10,0,0,0-5.88,2V14.7a8.23,8.23,0,0,1,2.94-1.07,14.61,14.61,0,0,1,3.39-.45c4.54,0,6.86,2.32,6.86,7V31.36Zm-17.29,0v-10a6.49,6.49,0,0,0-.8-3.65,3,3,0,0,0-2.76-1.25,3.25,3.25,0,0,0-2.67,1.43,5.87,5.87,0,0,0-1.07,3.47v10h-4V21c0-3-1.16-4.54-3.48-4.54a3.43,3.43,0,0,0-2.67,1.34,6.43,6.43,0,0,0-1.07,3.56v10h-4V13.63h4v2.76h.09a6.37,6.37,0,0,1,5.61-3.21,5.49,5.49,0,0,1,3.12.9,4.52,4.52,0,0,1,1.87,2.58,6.47,6.47,0,0,1,6-3.48c3.83,0,5.79,2.41,5.79,7.22v11ZM82.87,23.25a5,5,0,0,0-2.49.89,2.35,2.35,0,0,0-.71,2,2.2,2.2,0,0,0,.8,1.78,3.58,3.58,0,0,0,2.14.72,4.23,4.23,0,0,0,2.94-1.25,4.31,4.31,0,0,0,1.15-3v-1.6Zm3.74,8.11V29h-.08a6.42,6.42,0,0,1-9.36,1.43,4.79,4.79,0,0,1-1.51-3.83c0-3.48,2-5.44,5.79-5.88L86.61,20c0-2.41-1.15-3.66-3.38-3.66a10,10,0,0,0-5.88,2V14.7a8.45,8.45,0,0,1,2.85-1.07,14.61,14.61,0,0,1,3.39-.45c4.54,0,6.86,2.32,6.86,7V31.36Zm-16.21,0-4.54-8.73-4.64,8.73h-5l7.12-11.23L57,8.91H62l4.09,8.46,4.46-8.46h4.63L68.62,20,75.3,31.36Z"/>
			</g>
		</g>
	</symbol>

	<symbol id="react" viewBox="0 0 145.38 40">
		<title>React logo</title>
		<g id="Layer_2" data-name="Layer 2">
			<g id="Layer_1-2" data-name="Layer 1">
				<path fill="var(--react_svg)" fill-rule="var(--react_rule)" d="M78.7,31.57,72.34,22a6.52,6.52,0,0,0,6.11-6.87c0-4.33-3.07-7.1-7.38-7.1H61.61V31.56h2.93V22.2h4.7l6,9.36Zm-8-11.93H64.54v-9h6.18a4.38,4.38,0,0,1,4.7,4.49,4.41,4.41,0,0,1-4.7,4.52ZM89.62,32a9.26,9.26,0,0,0,6.78-2.62l-1.27-1.73a7.47,7.47,0,0,1-5.27,2.16,6,6,0,0,1-6.14-5.9H97.53v-.67c0-5.12-3-9.15-8.2-9.15-4.87,0-8.4,4-8.4,8.94,0,5.33,3.63,9,8.69,9Zm5.3-10H83.72c.14-2.62,1.94-5.69,5.58-5.69A5.53,5.53,0,0,1,94.92,22Zm20.2,9.6V19.85c0-4.14-3-5.76-6.6-5.76a8.92,8.92,0,0,0-6.82,2.83l1.24,1.83a6.77,6.77,0,0,1,5.22-2.36c2.48,0,4.31,1.3,4.31,3.6v3.07a7.12,7.12,0,0,0-5.65-2.33c-2.89,0-6,1.8-6,5.61a5.69,5.69,0,0,0,6,5.66,7.38,7.38,0,0,0,5.65-2.37v1.94Zm-7.34-1.48c-2.48,0-4.21-1.55-4.21-3.71s1.73-3.74,4.21-3.74a5.68,5.68,0,0,1,4.69,2.12V28a5.7,5.7,0,0,1-4.69,2.12ZM127.93,32a7.29,7.29,0,0,0,6.25-3l-1.77-1.62a5.14,5.14,0,0,1-4.33,2.22c-3.63,0-5.89-2.82-5.89-6.6s2.26-6.57,5.89-6.57a5,5,0,0,1,4.33,2.22l1.77-1.62a7.29,7.29,0,0,0-6.25-3c-5.09,0-8.51,3.89-8.51,8.94s3.42,9,8.51,9Zm14.27,0a4.32,4.32,0,0,0,3.18-1.1l-.78-2a2.51,2.51,0,0,1-1.8.71c-1.16,0-1.73-.92-1.73-2.19V16.84h3.46V14.51h-3.46V9.85h-2.65v4.66h-2.83v2.34h2.83V28c0,2.54,1.27,4,3.78,4Z"/>
				<path fill="var(--react_svg)" d="M44.92,20c0-3-3.73-5.79-9.44-7.54C36.8,6.64,36.21,2,33.63.52A4,4,0,0,0,31.58,0v2a2.05,2.05,0,0,1,1,.24C33.87,3,34.41,5.72,34,9.22c-.1.86-.26,1.77-.46,2.69a44.58,44.58,0,0,0-5.82-1,43.64,43.64,0,0,0-3.8-4.57c3-2.78,5.78-4.3,7.69-4.3V0h0c-2.52,0-5.82,1.79-9.15,4.91C19.11,1.81,15.81,0,13.29,0v2c1.9,0,4.71,1.51,7.69,4.26a44.6,44.6,0,0,0-3.78,4.57,42.39,42.39,0,0,0-5.82,1c-.21-.92-.37-1.8-.48-2.65-.43-3.5.1-6.22,1.34-6.94a2,2,0,0,1,1-.24v-2h0a4.08,4.08,0,0,0-2.07.51C8.65,2,8.08,6.67,9.4,12.47,3.71,14.23,0,17,0,20s3.73,5.8,9.44,7.55C8.12,33.37,8.71,38,11.29,39.49a4,4,0,0,0,2.06.51c2.52,0,5.81-1.79,9.14-4.91,3.34,3.1,6.63,4.87,9.15,4.87a4,4,0,0,0,2.07-.51c2.57-1.48,3.15-6.11,1.82-11.91C41.21,25.79,44.92,23,44.92,20ZM33,13.9c-.34,1.18-.76,2.4-1.24,3.61-.38-.73-.77-1.46-1.2-2.19s-.87-1.45-1.32-2.15C30.54,13.37,31.8,13.6,33,13.9Zm-4.2,9.75c-.71,1.23-1.44,2.41-2.2,3.5-1.37.11-2.75.18-4.14.18s-2.77-.07-4.12-.18c-.76-1.08-1.5-2.25-2.22-3.47S14.8,21.26,14.22,20c.57-1.22,1.21-2.45,1.89-3.65s1.45-2.41,2.21-3.5c1.36-.12,2.75-.18,4.14-.18s2.76.06,4.12.17c.76,1.09,1.5,2.25,2.21,3.48S30.12,18.77,30.7,20C30.12,21.22,29.49,22.45,28.8,23.65Zm3-1.19A38.45,38.45,0,0,1,33,26.1a38.14,38.14,0,0,1-3.77.73c.45-.7.9-1.42,1.32-2.17S31.38,23.19,31.76,22.46Zm-9.28,9.77a38,38,0,0,1-2.55-2.93c.83,0,1.67.06,2.52.06s1.71,0,2.54-.06A35.75,35.75,0,0,1,22.48,32.23Zm-6.82-5.4q-2-.28-3.75-.72c.34-1.18.76-2.4,1.24-3.62.37.74.77,1.47,1.2,2.2S15.22,26.14,15.66,26.83Zm6.77-19c.85.88,1.7,1.86,2.55,2.93-.83,0-1.67-.06-2.52-.06s-1.71,0-2.55.06A37.86,37.86,0,0,1,22.43,7.78Zm-6.77,5.39c-.45.71-.9,1.43-1.32,2.17s-.82,1.47-1.19,2.2c-.5-1.23-.92-2.45-1.27-3.64C13.08,13.61,14.35,13.37,15.66,13.17ZM7.37,24.64C4.13,23.25,2,21.44,2,20s2.1-3.25,5.34-4.63a26.9,26.9,0,0,1,2.54-.92A42.42,42.42,0,0,0,12,20a44,44,0,0,0-2,5.55C9,25.29,8.17,25,7.37,24.64ZM12.3,37.72c-1.25-.71-1.79-3.43-1.37-6.93.1-.86.27-1.77.47-2.69a44.13,44.13,0,0,0,5.81,1A45,45,0,0,0,21,33.67c-3,2.78-5.79,4.3-7.69,4.3A2.12,2.12,0,0,1,12.3,37.72Zm21.71-7c.43,3.5-.1,6.22-1.33,6.94a2,2,0,0,1-1.06.24c-1.89,0-4.7-1.51-7.69-4.26a43.34,43.34,0,0,0,3.78-4.57,42.81,42.81,0,0,0,5.83-1A25.3,25.3,0,0,1,34,30.74Zm3.53-6.1a26.9,26.9,0,0,1-2.54.92A43.9,43.9,0,0,0,32.94,20a43.9,43.9,0,0,0,2-5.55q1.37.42,2.58.93c3.24,1.38,5.33,3.2,5.33,4.63S40.78,23.26,37.54,24.64Z"/>
				<circle fill="var(--react_svg)" cx="22.45" cy="20" r="4.18"/>
			</g>
		</g>
	</symbol>

	<symbol id="nodejs" viewBox="0 0 97.97 60">
		<defs>
			<linearGradient id="linear-gradient" x1="25.67" y1="25.64" x2="46.53" y2="25.64" gradientUnits="userSpaceOnUse">
				<stop offset="0.01" stop-color="#fff"/>
				<stop offset="0.19" stop-color="#e8e8e8"/>
				<stop offset="0.54" stop-color="#c3c3c3"/>
				<stop offset="0.82" stop-color="#ababab"/>
				<stop offset="1" stop-color="#a3a3a3"/>
			</linearGradient>
			<clipPath id="clip-path">
				<path fill="var(--nodejs1)" class="cls-1" d="M36.66,13.92a1.12,1.12,0,0,0-1.12,0l-9.31,5.37a1.11,1.11,0,0,0-.56,1V31a1.11,1.11,0,0,0,.56,1l9.31,5.38a1.12,1.12,0,0,0,1.12,0L46,32a1.13,1.13,0,0,0,.56-1V20.26a1.13,1.13,0,0,0-.56-1Z"/>
			</clipPath>
			<linearGradient id="linear-gradient-2" x1="25.52" y1="25.63" x2="47.04" y2="25.63" gradientUnits="userSpaceOnUse">
				<stop offset="0" stop-color="#a3a3a3"/>
				<stop offset="0.18" stop-color="#ababab"/>
				<stop offset="0.46" stop-color="#c3c3c3"/>
				<stop offset="0.81" stop-color="#e8e8e8"/>
				<stop offset="0.99" stop-color="#fff"/>
			</linearGradient>
		</defs>
		<title>Nodejs logo</title>
		<g id="Layer_2" data-name="Layer 2">
			<g id="Layer_1-2" data-name="Layer 1">
				<path d="M48.42,60a1.83,1.83,0,0,1-.93-.25l-3-1.75c-.44-.24-.23-.33-.08-.38A6,6,0,0,0,45.8,57,.22.22,0,0,1,46,57l2.26,1.35a.34.34,0,0,0,.28,0l8.85-5.11a.28.28,0,0,0,.13-.24V42.82a.27.27,0,0,0-.14-.24l-8.84-5.11a.32.32,0,0,0-.27,0l-8.84,5.11a.27.27,0,0,0-.14.24V53a.27.27,0,0,0,.14.24l2.42,1.4c1.31.65,2.12-.12,2.12-.9V43.69a.25.25,0,0,1,.26-.25h1.12a.25.25,0,0,1,.25.25V53.77A2.45,2.45,0,0,1,43,56.53,3.78,3.78,0,0,1,41,56l-2.32-1.34A1.85,1.85,0,0,1,37.72,53V42.82a1.85,1.85,0,0,1,.93-1.61l8.84-5.12a2,2,0,0,1,1.86,0l8.85,5.12a1.87,1.87,0,0,1,.93,1.61V53a1.87,1.87,0,0,1-.93,1.61l-8.85,5.11A1.78,1.78,0,0,1,48.42,60Z"/>
				<path d="M51.15,53c-3.87,0-4.68-1.78-4.68-3.27a.26.26,0,0,1,.26-.26h1.14a.26.26,0,0,1,.26.22c.17,1.16.68,1.75,3,1.75,1.87,0,2.66-.42,2.66-1.41,0-.57-.22-1-3.12-1.28-2.42-.23-3.92-.77-3.92-2.71,0-1.78,1.51-2.85,4-2.85,2.83,0,4.24,1,4.41,3.1a.25.25,0,0,1-.06.2.27.27,0,0,1-.19.08H53.81a.27.27,0,0,1-.25-.2c-.27-1.23-.94-1.62-2.76-1.62-2,0-2.27.71-2.27,1.24s.28.83,3,1.19,4,.87,4,2.78S54,53,51.15,53Z"/>
				<path d="M63.91,42.26a1.71,1.71,0,1,1-1.7-1.71A1.7,1.7,0,0,1,63.91,42.26Zm-3.13,0a1.43,1.43,0,0,0,1.42,1.44,1.45,1.45,0,0,0,1.44-1.44,1.43,1.43,0,0,0-2.86,0Zm.79-1h.66c.22,0,.66,0,.66.51a.44.44,0,0,1-.36.47c.26,0,.28.19.32.43a1.7,1.7,0,0,0,.1.5h-.41c0-.09-.07-.57-.07-.6s-.06-.16-.2-.16h-.33v.76h-.37Zm.36.84h.3a.25.25,0,0,0,.28-.27c0-.26-.18-.26-.28-.26h-.3Z"/>
				<path class="cls-3" d="M21,20.05a1.13,1.13,0,0,0-.56-1l-9.38-5.4a1.2,1.2,0,0,0-.52-.15h-.09a1.2,1.2,0,0,0-.52.15L.57,19.07a1.14,1.14,0,0,0-.57,1L0,34.59a.58.58,0,0,0,.28.49.58.58,0,0,0,.57,0l5.57-3.19a1.15,1.15,0,0,0,.57-1V24.11a1.13,1.13,0,0,1,.56-1L10,21.76a1.14,1.14,0,0,1,1.13,0l2.37,1.37a1.14,1.14,0,0,1,.57,1V30.9a1.15,1.15,0,0,0,.57,1l5.57,3.19a.57.57,0,0,0,.85-.49Z"/>
				<path class="cls-3" d="M66.16.07a.56.56,0,0,0-.56,0,.55.55,0,0,0-.28.49V15a.4.4,0,0,1-.2.34.36.36,0,0,1-.4,0L62.37,14a1.14,1.14,0,0,0-1.13,0l-9.38,5.42a1.11,1.11,0,0,0-.57,1V31.18a1.11,1.11,0,0,0,.57,1l9.38,5.42a1.14,1.14,0,0,0,1.13,0l9.39-5.42a1.12,1.12,0,0,0,.56-1v-27a1.13,1.13,0,0,0-.58-1Zm-.87,27.55a.31.31,0,0,1-.14.25l-3.23,1.85a.28.28,0,0,1-.28,0l-3.22-1.85a.29.29,0,0,1-.14-.25V23.9a.27.27,0,0,1,.14-.24l3.22-1.86a.24.24,0,0,1,.28,0l3.23,1.86a.29.29,0,0,1,.14.24Z"/>
				<path class="cls-3" d="M97.4,23.8a1.13,1.13,0,0,0,.57-1V20.2a1.14,1.14,0,0,0-.57-1l-9.32-5.41a1.12,1.12,0,0,0-1.13,0l-9.39,5.42a1.13,1.13,0,0,0-.56,1V31a1.15,1.15,0,0,0,.57,1l9.32,5.31a1.13,1.13,0,0,0,1.11,0l5.64-3.13a.56.56,0,0,0,.29-.49.57.57,0,0,0-.28-.5L84.21,27.8a.58.58,0,0,1-.29-.5V23.91a.56.56,0,0,1,.29-.49l2.94-1.69a.52.52,0,0,1,.56,0l2.94,1.69a.55.55,0,0,1,.28.49v2.67a.56.56,0,0,0,.29.49.58.58,0,0,0,.57,0Z"/>
				<path class="cls-3" d="M87.37,23.3a.22.22,0,0,1,.22,0l1.8,1a.2.2,0,0,1,.11.18V26.6a.21.21,0,0,1-.11.19l-1.8,1a.22.22,0,0,1-.22,0l-1.79-1a.21.21,0,0,1-.11-.19V24.52a.2.2,0,0,1,.11-.18Z"/>
				<path class="cls-4" d="M35.53,13.92a1.14,1.14,0,0,1,1.13,0L46,19.29a1.13,1.13,0,0,1,.56,1V31A1.13,1.13,0,0,1,46,32l-9.31,5.38a1.14,1.14,0,0,1-1.13,0L26.23,32a1.11,1.11,0,0,1-.56-1V20.26a1.11,1.11,0,0,1,.56-1Z"/>
				<g class="cls-5">
					<path d="M35.52,13.92l-9.31,5.37a1.14,1.14,0,0,0-.59,1V31a1.12,1.12,0,0,0,.26.7L36.36,13.8A1.13,1.13,0,0,0,35.52,13.92Z"/>
					<path d="M36.42,37.46a1,1,0,0,0,.22-.09L45.92,32a1.08,1.08,0,0,0,.52-1V20.26a1.14,1.14,0,0,0-.24-.72Z"/>
					<path class="cls-7" d="M45.92,19.29l-9.27-5.37a1.48,1.48,0,0,0-.29-.12L25.88,31.72a1.18,1.18,0,0,0,.32.27l9.32,5.38a1.09,1.09,0,0,0,.9.09L46.2,19.54A1,1,0,0,0,45.92,19.29Z"/>
					<path d="M26.31,19.23l-.1.06a1.14,1.14,0,0,0-.59,1V31a1.13,1.13,0,0,0,.58,1l9.32,5.38a1.1,1.1,0,0,0,.81.11Z"/>
					<path d="M46.44,20.26a1.08,1.08,0,0,0-.52-1l-9.27-5.37a1.19,1.19,0,0,0-.26-.11L46.44,31Z"/>
					<path class="cls-8" d="M36.64,37.37,45.92,32a1.08,1.08,0,0,0,.52-1V31l-10-17.16a1.15,1.15,0,0,0-.87.11l-9.21,5.31,10,18.25A1.15,1.15,0,0,0,36.64,37.37Z"/>
				</g>
			</g>
		</g>
	</symbol>
	<symbol id="barcode" viewBox="0 0 353.73 353.73">
		<defs>
			<clipPath id="clip-path" transform="translate(0 0)">
				<rect class="cls-1" width="353.73" height="353.73"/>
			</clipPath>
		</defs>
		<title>Barcode</title>
		<g id="Layer_2" data-name="Layer 2">
			<g id="Layer_1-2" data-name="Layer 1">
				<g class="cls-2">
					<path d="M80.69,176.87q0-29,0-57.95c0-6.14,4.91-9.91,10.08-7.81,3.44,1.4,4.7,4.28,4.72,7.78,0,5.24,0,10.47,0,15.71q0,48.6,0,97.21c0,1.12.05,2.24,0,3.36-.26,4.9-3.32,8.11-7.59,8s-7.17-3.41-7.18-8.34q-.06-29,0-58" transform="translate(0 0)"/>
					<path d="M272.32,176.82q0,28.23,0,56.46a23.19,23.19,0,0,1-.13,3.73,7.4,7.4,0,0,1-7,6.16A7.15,7.15,0,0,1,258,237.8a17.28,17.28,0,0,1-.45-4.43q0-56.46,0-112.92c0-.25,0-.5,0-.74.07-5.77,3-9.25,7.57-9.15s7.22,3.5,7.22,9q0,28.61,0,57.21" transform="translate(0 0)"/>
					<path d="M139.71,176.76q0-27.85,0-55.7c0-1.12,0-2.25,0-3.36a7.33,7.33,0,0,1,7.19-7.15,7.17,7.17,0,0,1,7.31,7c.23,3.6.15,7.23.15,10.84l0,104.3c0,7-2.37,10.44-7.26,10.5s-7.39-3.44-7.39-10.34q0-28,0-56.07" transform="translate(0 0)"/>
					<path d="M213.3,177.13q0,27.84,0,55.69a31.25,31.25,0,0,1-.12,4.11,7.27,7.27,0,0,1-7.26,6.24,7,7,0,0,1-7-6,76.43,76.43,0,0,1-.28-9q0-53.82,0-107.65a29.77,29.77,0,0,1,.09-3c.4-4.17,3.43-7,7.33-7a7.36,7.36,0,0,1,7.2,7.15c.07,1.12,0,2.24,0,3.36q0,28,0,56.08" transform="translate(0 0)"/>
					<path d="M228.11,169.38c0-16.71-.12-33.42.14-50.12a11,11,0,0,1,3-7.13c3.58-3.4,9.69-1.29,11.12,3.48a17.14,17.14,0,0,1,.49,4.81q0,49,0,98a23.55,23.55,0,0,1-.15,3.36,7.41,7.41,0,0,1-7.67,6.67,7.29,7.29,0,0,1-6.9-7.45c-.11-9.6-.06-19.2-.07-28.8q0-11.4,0-22.81" transform="translate(0 0)"/>
					<path d="M183.92,165.61c0,15.32,0,30.65,0,46a14.26,14.26,0,0,1-.66,4.75,6.72,6.72,0,0,1-6.92,4.67,6.63,6.63,0,0,1-6.55-4.66,16,16,0,0,1-.66-5.13q-.06-45.42,0-90.84a24.83,24.83,0,0,1,.07-3,7.37,7.37,0,0,1,14.7,0,26.88,26.88,0,0,1,.08,3.36v44.87" transform="translate(0 0)"/>
					<path d="M309.08,44.28s-30.36,0-34.85,0c-5.73,0-9.3-2.92-9.29-7.46s3.58-7.37,9.33-7.37q20.18,0,40.36,0c6.73,0,9.29,2.57,9.3,9.25q0,20.19,0,40.37c0,.37,0,.75,0,1.12-.14,4.87-3.11,8.2-7.33,8.25s-7.41-3.31-7.46-8.13c-.1-10.47-.06-36-.06-36" transform="translate(0 0)"/>
					<path d="M43.93,309.45H76.49a41.82,41.82,0,0,1,4.48.09,7.52,7.52,0,0,1,7.1,7.33,7.4,7.4,0,0,1-7.41,7.37c-6.23.17-12.46.06-18.69.06-8.1,0-16.2,0-24.3,0-5.71,0-8.56-2.81-8.58-8.46q-.07-20.94,0-41.87c0-5.15,3-8.59,7.28-8.66s7.49,3.42,7.52,8.83c0,10.59,0,21.18,0,31.77v3.55" transform="translate(0 0)"/>
					<path d="M43.9,44.28s.1,28.57-.06,36.41c-.09,4.6-3.36,7.79-7.45,7.74s-7.2-3.33-7.28-7.89c-.11-5.73-.08-34.14,0-42.61,0-5.48,2.86-8.45,8.21-8.47q21.3-.11,42.6,0c4.82,0,8.18,3.19,8.17,7.4s-3.33,7.35-8.2,7.39c-10.22.11-36,0-36,0" transform="translate(0 0)"/>
					<path d="M309.11,309.45V275.71c0-6.76,2.63-10.42,7.45-10.41s7.37,3.62,7.38,10.44q0,19.62,0,39.25c0,6.69-2.6,9.29-9.28,9.3q-20.37,0-40.74,0c-5.43,0-8.94-2.94-9-7.36s3.49-7.44,8.9-7.46c11.57-.05,23.14,0,35.27,0" transform="translate(0 0)"/>
					<path d="M124.89,158.51q0,19.44,0,38.87c0,5.64-2.69,8.84-7.33,8.85s-7.41-3.19-7.41-8.83q-.06-39.06,0-78.12c0-5.5,3-8.85,7.56-8.73,4.37.12,7.17,3.46,7.18,8.71,0,13.08,0,26.17,0,39.25" transform="translate(0 0)"/>
					<path d="M345.74,0H8A8,8,0,0,0,0,8V345.74a8,8,0,0,0,8,8H345.74a8,8,0,0,0,8-8V8a8,8,0,0,0-8-8m-6,335.74a4,4,0,0,1-4,4H18a4,4,0,0,1-4-4V18a4,4,0,0,1,4-4H335.74a4,4,0,0,1,4,4Z" transform="translate(0 0)"/>
				</g>
			</g>
		</g>
	</symbol>

</svg>
